<mxfile host="Electron" modified="2024-01-15T17:09:14.094Z" agent="Mozilla/5.0 (Windows NT 10.0; Win64; x64) AppleWebKit/537.36 (KHTML, like Gecko) draw.io/21.2.8 Chrome/112.0.5615.165 Electron/24.2.0 Safari/537.36" etag="g4jgZHqwc-Ak_CRVeJMS" version="21.2.8" type="device">
  <diagram name="Page-1" id="yIDWRV6hPl0K5xTMbdkP">
    <mxGraphModel dx="1418" dy="820" grid="1" gridSize="10" guides="1" tooltips="1" connect="1" arrows="1" fold="1" page="1" pageScale="1" pageWidth="3300" pageHeight="4681" background="#999999" math="0" shadow="0">
      <root>
        <mxCell id="0" />
        <mxCell id="1" parent="0" />
        <mxCell id="D3NFLAu3o3HW8XcyuW8i-10" value="" style="rounded=0;whiteSpace=wrap;html=1;fillColor=#1e1e1e;" parent="1" vertex="1">
          <mxGeometry x="1650" y="190" width="790" height="690" as="geometry" />
        </mxCell>
        <mxCell id="D3NFLAu3o3HW8XcyuW8i-1" value="CMake" style="rounded=0;whiteSpace=wrap;html=1;" parent="1" vertex="1">
          <mxGeometry x="770" y="340" width="240" height="60" as="geometry" />
        </mxCell>
        <mxCell id="D3NFLAu3o3HW8XcyuW8i-2" value="CMake" style="rounded=0;whiteSpace=wrap;html=1;" parent="1" vertex="1">
          <mxGeometry x="770" y="420" width="240" height="60" as="geometry" />
        </mxCell>
        <mxCell id="D3NFLAu3o3HW8XcyuW8i-3" value="MSVC" style="rounded=0;whiteSpace=wrap;html=1;" parent="1" vertex="1">
          <mxGeometry x="390" y="300" width="170" height="60" as="geometry" />
        </mxCell>
        <mxCell id="D3NFLAu3o3HW8XcyuW8i-4" value="GCC" style="rounded=0;whiteSpace=wrap;html=1;" parent="1" vertex="1">
          <mxGeometry x="390" y="380" width="170" height="60" as="geometry" />
        </mxCell>
        <mxCell id="D3NFLAu3o3HW8XcyuW8i-5" value="CLANG" style="rounded=0;whiteSpace=wrap;html=1;" parent="1" vertex="1">
          <mxGeometry x="390" y="460" width="170" height="60" as="geometry" />
        </mxCell>
        <mxCell id="D3NFLAu3o3HW8XcyuW8i-6" value="VS Code" style="rounded=0;whiteSpace=wrap;html=1;" parent="1" vertex="1">
          <mxGeometry x="1220" y="340" width="180" height="60" as="geometry" />
        </mxCell>
        <mxCell id="D3NFLAu3o3HW8XcyuW8i-7" value="C++ Extension" style="rounded=0;whiteSpace=wrap;html=1;" parent="1" vertex="1">
          <mxGeometry x="1220" y="420" width="180" height="60" as="geometry" />
        </mxCell>
        <mxCell id="D3NFLAu3o3HW8XcyuW8i-8" value="CMake Extensions" style="rounded=0;whiteSpace=wrap;html=1;" parent="1" vertex="1">
          <mxGeometry x="1220" y="510" width="180" height="60" as="geometry" />
        </mxCell>
        <mxCell id="D3NFLAu3o3HW8XcyuW8i-9" value="&lt;div style=&quot;color: rgb(212, 212, 212); background-color: rgb(30, 30, 30); font-family: Consolas, &amp;quot;Courier New&amp;quot;, monospace; font-weight: normal; font-size: 24px; line-height: 32px;&quot;&gt;&lt;div&gt;&lt;span style=&quot;color: #569cd6;&quot;&gt;cmake_minimum_required&lt;/span&gt;&lt;span style=&quot;color: #d4d4d4;&quot;&gt;(VERSION 3.25.0)&lt;/span&gt;&lt;/div&gt;&lt;div&gt;&lt;span style=&quot;color: #569cd6;&quot;&gt;project&lt;/span&gt;&lt;span style=&quot;color: #d4d4d4;&quot;&gt;(Rooster VERSION 0.1.0 LANGUAGES C CXX)&lt;/span&gt;&lt;/div&gt;&lt;br&gt;&lt;div&gt;&lt;span style=&quot;color: #569cd6;&quot;&gt;set&lt;/span&gt;&lt;span style=&quot;color: #d4d4d4;&quot;&gt;(CMAKE_CXX_STANDARD 23)&lt;/span&gt;&lt;/div&gt;&lt;div&gt;&lt;span style=&quot;color: #569cd6;&quot;&gt;set&lt;/span&gt;&lt;span style=&quot;color: #d4d4d4;&quot;&gt;(CMAKE_CXX_STANDARD_REQUIRED &lt;/span&gt;&lt;span style=&quot;color: #569cd6;&quot;&gt;ON&lt;/span&gt;&lt;span style=&quot;color: #d4d4d4;&quot;&gt;)&lt;/span&gt;&lt;/div&gt;&lt;br&gt;&lt;div&gt;&lt;span style=&quot;color: #6a9955;&quot;&gt;#Bring in the fmt library&lt;/span&gt;&lt;/div&gt;&lt;div&gt;&lt;span style=&quot;color: #569cd6;&quot;&gt;include&lt;/span&gt;&lt;span style=&quot;color: #d4d4d4;&quot;&gt;(FetchContent)&lt;/span&gt;&lt;/div&gt;&lt;div&gt;&lt;span style=&quot;color: #d4d4d4;&quot;&gt;FetchContent_Declare(&lt;/span&gt;&lt;/div&gt;&lt;div&gt;&lt;span style=&quot;color: #d4d4d4;&quot;&gt;&amp;nbsp; fmt&lt;/span&gt;&lt;/div&gt;&lt;div&gt;&lt;span style=&quot;color: #d4d4d4;&quot;&gt;&amp;nbsp; GIT_REPOSITORY https://github.com/fmtlib/fmt.git&lt;/span&gt;&lt;/div&gt;&lt;div&gt;&lt;span style=&quot;color: #d4d4d4;&quot;&gt;&amp;nbsp; GIT_TAG 10.1.1&lt;/span&gt;&lt;/div&gt;&lt;div&gt;&lt;span style=&quot;color: #d4d4d4;&quot;&gt;)&lt;/span&gt;&lt;/div&gt;&lt;br&gt;&lt;div&gt;&lt;span style=&quot;color: #d4d4d4;&quot;&gt;FetchContent_MakeAvailable(fmt)&lt;/span&gt;&lt;/div&gt;&lt;br&gt;&lt;div&gt;&lt;span style=&quot;color: #569cd6;&quot;&gt;add_executable&lt;/span&gt;&lt;span style=&quot;color: #d4d4d4;&quot;&gt;(Rooster main.cpp)&lt;/span&gt;&lt;/div&gt;&lt;div&gt;&lt;span style=&quot;color: #569cd6;&quot;&gt;target_link_libraries&lt;/span&gt;&lt;span style=&quot;color: #d4d4d4;&quot;&gt;(Rooster PRIVATE fmt::fmt)&lt;/span&gt;&lt;/div&gt;&lt;/div&gt;" style="text;whiteSpace=wrap;html=1;" parent="1" vertex="1">
          <mxGeometry x="1720" y="250" width="680" height="580" as="geometry" />
        </mxCell>
        <mxCell id="D3NFLAu3o3HW8XcyuW8i-11" value="" style="shape=image;verticalLabelPosition=bottom;labelBackgroundColor=default;verticalAlign=top;aspect=fixed;imageAspect=0;image=data:image/png,iVBORw0KGgoAAAANSUhEUgAAAl0AAAFbCAYAAADvMzurAAAAAXNSR0IArs4c6QAAAARnQU1BAACxjwv8YQUAAAAJcEhZcwAADsMAAA7DAcdvqGQAAOfuSURBVHhe7P0NeBzVme+LvhMMMZFlC9nCAQFqQ6QADYzAJCYjGxQyO5lxe5LZIWRGtkVwwsc5ts/kzDwO2Oxz79333rPBED/JSR7bZ0OYMcFfMzuBucl2eyYZQgSyCEwQKIAgsQJuQQQY2UJGVmzAztz1f2ut6lWrq6qrW1JbMu+Pp7Hqa9X6qvX+1/uu7vqjxsam/yBBEARBEAShbKZPn06nnPIh+qM/+iP60Ic+xB/zN/7lv/W5giAIgiAIQpm8//779B//QerzH/7HRUSXIAiCIAjCGDl+/Lj+K48rvkR0CYIgCIIgjAMIIYZ5uszfIroEQRAEQRAmGAgvEV2CIAiCIAjjhOvlsgl8e/HohZ+jNy9dRu+fOkPvEQRBEARBEMCp7x+mjz6/nab/+id6T5Cqqir6wx+O8zcWTznllIJvMgZEV+76Bynds5FmvJPTewRBEARBEARweGaKeptXU+oHN+g9QWzR5X4KfjICHi4RXIIgCIIgCIVAI40lGihrugRBEARBECqAiC5BEARBEIQKIKJLEARBEAShAojoEgRBEARBqAAiugRBEARBECqAiC5BEARBEIQKMOGiq7Gxkb7yla/QnDlz9J7JyRe/+EX+JOUzn/kMrVy5kpYuXcq/y3EygbKVUhflgH7x1a9+lf8NA/dHPsqh1LYUBEEQhEpwyuzZs/+r/puGLv0rOm/fLr1VCAzkl770JVqwYAF94hOfoHPPPZdeeuklfTQclT6f19fXR7///e/13uRA0Fx//fV06qmn0htvvKH3lg5E31/+5V9yGiYfMMyf+tSn6LXXXqPu7m6/LCjnX/zFX9DAwEBonpHWlVdeSY899hh/3n//fX2kPNx6xZvKo8qKe//1X/815xvnXnrppZx//Oga6gnbr7zySkGezHW1tbW0b98+vTec888/n6ZPn160bQ1RbYT6veiiiwLpQEhdfvnl1NXVRc8++ywNDQ3xfpx79tln+3nDde+++25oXsezLQVBEAShFF49fwnNfv6f9FaQ0047jV8BxL8+H/JJ7OmC8Vq0aBH9/Oc/p82bN/NncHBwynp5YPwhLP7pn/6JDhw4oPcmB6Lm7bff1ltjA8L04Ycf5jp98sknqbm5mYWFyxVXXEFf/vKXqaenx2+Dzs5OFijg2LFjXKaPf/zjvG3zx3/8x3xsIhgdHaX9+/dTKpXSezwhhvvV1NQEyjJr1izK5cb3B3jH2paCIAiCUAkSe7ogDPB55plnfC/Kq6++6v9te2DgyXjnnXfYi+F6umyvjvHSGA+EnQa8ODCkV199Nc2YMYPOOeccvtb14rjXzJw5M9Q78pGPfIQuuOACevnll+nCCy9kgfCjH/2IBQMwnpYzzjiDrrnmGlar6XS6ID3kYfHixZyefRyG/8///M85D3b5AdLGvRcuXMgCyS3D7373O78OsL+hoYHzaXtmUE5cD89ab2+v3qvaTN0D7YD8NjU1seioq6sLeJdwLUTXW2+9xcLMlAf5+vSnP815tuvW9nSZ9oJ4wnVR7Tdt2jSqr69nQYU0UL/Yxv2QR3yQj0suuYTLhn4BDxT2L1myhI/hY9JEHfzhD3+gT37ykyz27Toda1va5Y7qL4IgCIIQRkU8Xa+//job1s997nN6Tx54NT772c/6Hhh4w/7kT/6EjagNtrHfeMtwPq7D9Tj2+c9/3k/j3/7t39jAwnsxPDzMHqAdO3b4htVw3nnnBa6BsYYwiAKiB56kn/70pwVpAYhKpINj/+N//A/62c9+po94QDzCK4U8mePwQOG+2I4q/5lnnkk//vGPQ8tgg/IcPXq0wGOD/RAzaIc4IFjQTnYdQHAhzSNHjug9XltALCG/3//+93nfVVddxf8acA4Ez9NPP83ljGs/eP1OP/10FjsA+YX3Cx/8bfa5ZUCeUCdvvvkm/eY3v6F/+Id/8MuO83/5y1/yvbAPgsymnLY068SQJj5u+wqCIAjCRJFYdMFwwTgCLCCHt8BgwlkwmgBGFcYUngYbGP+RkREWLgAeGgBjDQMLIQNDCXCO7dGJAueba3Dfw4cP899hwHsDww2xMF5hKAgOeFvsNJF3lNOIDdDf3x95T4gZLCpHvcJrA1EXBoRTnGAD7733Hh08eNAXKMgfvErPP/88bxuQl3/913/lv5EmxJENhBsEFfJt6jeu/ZCeKbO5J45DjM2dO5f3oT/gPsXKYIAny9wLHjS0H9IB5bYl8mOnIwiCIAiVouRvL5q1R8D+5h7CT/iWIoSD+bZidXU1H7P56Ec/yufgg/VJCB3CGONz6NAhfVZycH/kw9wX+YgCosWsmYrzhpUKQmgQHDYoiys6o4BogIcH9Qpxccstt4TmL6lY+NWvfsXnog0giJE/I15s4PUxbeGuA8O1APVlE9V+AHnHmi2IMIg2CBwjzLCAH+Kr3HVwqF+Uw1BuW0JAQvihr5yM3zwVBEEQJi9l/2TET37yEzaCJpyE8JAJ2ZiP8ZDYwBtmn3Pffff5ggAGuxRgML/whS/Qr3/9a04LYTJ4y+KACIB3BGt6xkt4QWC4AhNlKUdgoM4gwtz0kG98O9DUdxy4HsIC37D82Mc+VuDlAhBcyKNpB+OlNKA9IWzccHJc+yGPEHsI++Fa5AMf/G0W2RsRNh6U25YIKSLvqKOwcLkgCIIgTASJRRfWLeFjgPGHlwPA+MHDZB8PA+dFrbnCMXhXTBo4B4uf44BHBULEeJnsPMUBYYN1SlivZDw65WJCc/Y3DpF3iKYkAgPCEfkw4FrUJcpkvHioE4gXLLh3BQb+tq834N4I9UEQhq0Dg+AynkXcB14oFwhriCgTSo5rP2DWjCHsZ39DEX9jnxFi48lY2lJCjYIgCEIlSfztRXxzDN+eg3HDt75gfPFNOng5sCAba6laWlr835qCYca34SA+zLcXIRqweh/fKMM5+Jjf+sKiedzDpIH0saYHHhcIKyzyNmliMTbAfU855RQ/PYS+sKYJIgPp2djfeMN1+I0nhLxwP9wXosP8LhSuxbnIR9i329y0cBxpmXzgW3u7du3yBQY8P1G/OYWywCNlvk1n1yu+BYH1YkgH+cX1+FaEXX9YO9XR0cFp4duLqC/kHx+k9dvf/tYXf/hWIkA6+LkPlA/f+sQ3ClEOiCYcM99efO655/i+WMuFMkDcwLsZ1n4AZcEXBiB8//3f/53TBNhGXl588UX/d7yQb/tbrUgX4hL3Mt9etOsM55911ll8PvpDuW2JsplvmUKk7d69u6ywtiAIgvDBZCzfXvyjxsam/9DnUt/Sh2nhz/4XvSUIgiAIgiDY7PnMf6fGHeFvPUHk5A9/OE4f+tCHCj4QXWWv6RIEQRAEQRCCDA29zVGWgweH6MCBgzQ4eICjS2+9NSiiSxAEQRAEoRKI6BIEQRAEQagAIroEQRAEQRAqgIguQRAEQRCEChAQXae+f5gOz/R+xFIQBEEQBEHIA40ErVQugZ+MOHrh5+jNS5fR+6cW/4FRQRAEQRCEDxIQXB99fjtN//VP9J4g+MkI/Lbmhz6E3+XyfiaCfypCbSvJFRRdgiAIgiAIQnkUE12ypksQBEEQBKECiOgSBEEQBEGoACK6BEEQBEEQKoCILkEQBEEQhAogoksQBEEQBKECiOgSBEEQBEGoACK6BEEQBEEQKkDgd7oOVM2j0elz6A9/dIreIwiCIAiCIIAP/cdxqjp6gOaM7tN7giT+nS4IrpHT54rgEgRBEARBCAEaCVoJmqkcfNEFD5cgCIIgCIIQT7mayRdd4uESBEEQBEEoTrmaSRbSC4IgCIIgVAARXYIgCIIgCBXgpBBd9+38Pr3/hPrs/KreUz5Ia3Djn+utPH+78f+m9396O/2t3hYEQRAEQSgF/ycj9s25inck48/ppz/9a/r0DPVn/2N0ats/EP317TT4NxdTjXdCfv9Ew/etoX/+k3V0i941FiC6/vPBf6S61f+i94Thlf+sx75Cl/43vauAkDqK4NKPnUv/+1//Gc2ehZOJnut7lf6f9z3Ef08EG9d8hX7d/zpt/MG/6T3hLP3cp+iLn/4EvX/sON378KPU8cxL+sjkpvWKi+irn7+G/vUXv+Ltay6/iDb+8N/o+d++xtuTEdR1VD7RXkPvHJ7QPiEIgiCUxrwDT+q/8iT+yYhy+HX2K5bgStGz31Xbf+J9thysq5xX6PAwTT458C/02c9+hW575vd6O5pb//JaGnhriP7yG9/mz7vvH2MhdqL5k0ubqKP7JWr7PzZNGcEFkNcb/ut/px0/+YXeM/lA+9679qsstoqxesP3p6zgWn39f2LRKAiCIIxnePFwjv7lH/XfiltW303f1n8TfZWeR/hPf57/L95ePyyIjxW641Dezq9ax/9v+ulf64M2/+Uueh/etRkX0z1Wuny9STdwLfKhtjeq69SxsDBiAKSv0zV58tLwPFgXZqx8Q3j697yL7sO+BMD4njrtFPY8Gf7blh9Naq+MIAiCIAilM6bwYj68pkNpB8PCaBAp1xBl9blKnPz0grvps/9N7d+pRAef711/+V4vrAeBc88VH2FPGq7h7aYc3fZZW8hpIHaUFrrTHINQyhBtMeHGQPjRy8uFMeE+P7y45zLtvftf6bNKTHIeZv9SX+eWH+l+gt7Q59oErwvn/3PLddR43kdDQ3jwFPzpJy/hvw8eOkz/1z/+K82eOYNu/eK1dPqHT+P9JhxpQlRg5ozTOb1LLjin4Hp41t44OMzHkMbv9g+xN8UG3olz5tby3+a4nZdjx4/Twz//JXuTkP8ZH5lOZ82poYPDhwvSCisDsEOq5h4IDbYvXkivDLxFn7j4fDry7nu0U93jC9fM53PN9RClyKNdDrt+kMbW3Xvo7LqaQNguLC+XquvtevuXJ35F16h8mLw98u8vFIRiTeh12ine14bNOW7+7WMGN5yMsj/x/F7Ow9sjo3Rh6uxA/drhYNT1ZY3n+de5de2mbe4d13annTqN6s6YydegL7319jv+ueZ607dM/uxjdv6A2QbuPYGpN7St6fO45vCRo/Sxc+fSi68MSChVEIRJT8XDi3m8UNoWusbz9NgL2v9LI4scf+3TP0Jw4Y9/0IIL/Av9y14nDGdd8+09ORqeUUOeWYxDiaFrzlZizVrfpe73z/1n06e0F4zo9/TzH0ULII/L6Pm/uZjezBaKqHDeoDcOf4TOukBvlggMTNev9tL/3vZn9Pf/x81+aBGG8sKGs/2wI0KQ11/7STZSCPlh3/+181+p/sxaNvZgds0Mev7l1/g4BMcn0xfwOTj3a//n93wPGoQKDB6OQWi4YS4Ycxh1GFYjuFr+uMlPCwb0zz71x/59IbiQnisCkK6bBwBhYIdUAQQA+Mj00+is2TW8v+/VN+mGzEL62S9foP/HvT/k49dcfiH/C0w5cO6Ro+9x/UQRVZ/ArreZVadzWuY8IyYMKNNfLLqC6wDHUTaU0dShnX/U3+UfT/ltCtAGEHv7Dx6i//HIk36dIQ/vvX+Mr4PwQHjXBnWNtjZ16dY1cEPVyHuxtoPQQf3iOMS/qSM373b+kG+U2aQRBu6NNNCPvrT2u7wPwu3/ff8/cxro81+y2gvCD8dEcAmCcLIyrt9evKVNr+eC+NJht789q4aGD77hneDAITsdkoNnK5J/HKQ39Z/F+T298bL+U/PSwd/TR88qEkq0qLni4qBQLApE52NECDeqspgwZynAQMEQwWBCkMDQnamMELxN/79v/i1/4OGonel5MCBQsA9CbZYSTRBYAJ6mx579Nf8N45l7fTB0PRYMHvbj887hI366USAv5hoALwmug+gBEEdh9wnLAzxREDU/ePTf9R5iT8/c2ll03kdn0+/VsR/qY/C6vHngEN8PYgXX2dh5stMII64+7XrDovWPzpnli0AXXIPyIk8A90cZUVZg5/+Fl3/H/6LMxUAeTJ3AU4Swsy3WDqp8AXjS7P0GCKDTleB79OkX9R6PYm0HgYd9SB/7UY8A9XDs2HH+G9j5c9NIAupt7uxZ9P+99Utc//CCIb+mLM/+JudPCgRBEE5GJuQnI25p+0f6OaXoz/VaqprZZ3l/WPhhN73wPsmC82QUepwumv0RevONuG8jBhl+5jH6+exriq/5CvAPdCmXBeIrYg1aAmDUYOgQ8gII90CMmQ+8GxADMGDYhvcHxjAMnAPRciKZDHmwCatPFwgK45mBOICnaDIAQQJPIbxS/6+b/jOH5GwgvNF3jDibjMDrZde/7X0VBEE42Rkf0fVf7gp6d/76MrpcT+w5NNhwTf441nSpvyGE8h6wP6c/b4rxdCXGC1NemLEWsqv7/eeG1+kXib1W4A32XL15xV+XKLxAaaFGzPLXr/orf7YPjwhm/wBiBeEeN4QDIQMvBIA4Q3gwDHhLEFaKCwElBXmx00IoDfc1npwowvIAUYAy2qFAhNL2Dx2iV988qPckw3iXQLE0ouozCoS5EB6z7wFQ90jHhBORXursOn8d00QDUbjxf/wb16FdludVW0ybdkpBiLXctnPBNWYyYKeB+jB1hHsgDBkGzsMxU2+CIAgfNMZHdP23x+mNa8w399THWoCONVV1332RPqpDbzhGL8Mb5oka75rP01kHx8fT9e3V/yvd9kwNrfDzUu5veP0DXaryTchjwY+u/gt99rHXrW8vYiG9vt8T3hcCkoYmMcv/3VtDfsgF4cJ/733ZM6w/+DcOY2GfCYnB64Lwz8Xn1/M21uYgnBWGe729XqxU3LSwGBq/gxUWUrQJywPAIncIF+zDB5S7lidpGlH16YJ95jjEigkVGtA2CNd9+U+v4nOQnmmzpKDdIRCRhuuxigKCZuf/ucq/J8Jxdv0jTbdeUZZy284F/Qz9zU0D4UyIKezHFzzs/ghRhmM/XP83vG3XGz5RIVxBEISTkXH69qIQRZJvLwrl4X5rTpg44J2yvwUqCILwQafi315kT884vHrn5ATCtMgXBARBEARB+MBQpujyfiKCF8GLBycCqSNBEARBEPL44cX+2Z+gP/yR90OPgiAIgiAIQjgf+o/j1HDQ+8Fnm8ThxaqjB/RfgiAIgiAIQhRxmun999+j997D513/8+673r++6Jozuo+qj+xn9SYIgiAIgiAEgUaCVoJmKgc/vCgIgiAIgiCUD8KLb7zxuh9WdD/j8ztdgiAIgiAIQiwiugRBEARBECqAiC5BEARBEIQKIKJLEARBEAShAojoEgRBEARBqAAfONG1fP0O2rl+md7S2zu9fS1rvkc777uNWvSx5Cyju3beScv1liAIgiAIgkuZPxnRQrfft4qaq9Wf/VlqW0tKdLTS8Oab6e5O7wxm0W10fzvRllvuoS69a1KB/K2soY62O2ib3lUeEF1p6lXpkBJxmQa1a6SHNsaUe/78K6i5uZl+9KMf86/XglQqRZ/73OfoJz/5CeVyOd5XaZCvq676FGWzWc7DV75yA5155pn08suvUHX1DBoZOUwPP/ywPrs4X/ziF/nfsGtwDGk+9tjj417uT3+6la688kr++/jx4+oej1F//6t03XXX0dGjR+j733+Qj9mgrCDsmAHnvPrqq/Tzn3foPScXYf1yqmH34SuuuIL3ldJnK0HcczEeuM+xUDpz5szh8WLv3t+ctM+7MP5M6E9G5HYvVYJru96aoowMU3k/cRbOtrWqTnZP3UGuu/sZ2rRpEw/UGLinTZtGW7Y8wMYBYmS8jAQEZl1dHQuuUkG+vva1r/KgGAaEUVPTxznf3/zmBnrwwa101lln87Fjx96n6dNP5/vbIM0ZM6rV8WN6j5AUCFwjWCcDdh/+oDLV6gD9B/0ojLhjEwkmHU8//Us6//zzI8caQSiVyoUX4VVCCK79Ti+cpz73r7ECeXxch/pMqC7kGjs0CPzwoPoE0lNwuNBcp8OGOJ/PQ5orm6mquplWq+N3tevzrfQD18fcF9cKpTFvXooGBwfH3SgYofjQQw/5nhr8u2vXLv4bQHgZD4ihoQH5eUtvCYIgEHvHQUPDefyvIIyVMYUXazqX0rqt2EZ4rUh4kUN5SuRwOHK7Du01Uh9fE3O9fY2+b+PeTXTThi4WRavndASOmTzxsaY+P8S3fM1ttG/DPTRPiaXWA971gfwhBTs9iLJFw/nrreuC9/WOZRpylDVhSufaMCAO4sKLs2fX8vGRkRH1wDf4ITLMYO3Q2TvvjLDAuPrqq5XYOIXOOKOWZs6s5vc+IW2IGuMmx37w9NNP++5yzCIRPgQIIfb35/i+fX2/VfeYT6eccop/70suucQPrSH/11xzDR+374UyfOELn6fTTjuN96NsR44cLfCQ4b4mraiwali+33nnHf++Zp/t+o8L2yA95G3//rdo7twz/bo39x8YGOB6h0cvLDyJurfzjb9ramo4ncOHD0fWscEuD9L83e9+R6effjrfz04X2NtRdY2yXnDB+Xz+W2+9Rdns7tg8oEznnXce38/kxYROcI8LL7yQfv3rX0f2O/t+Jh8Qz2H1ZIOy2H0MbRNVv+a5MPdH/96zp5P+9E//lPsUyon8u+cBU15zDPnDcwFwz6jnAOU6/fTpfHx4eJjr3X2+zDMK7D4OTJncPNnlSvpcxOXRfr6Rr5/97Gf0mc98JhD+Mv3fPMemDuzymf5m2sQuY9h9cGzGjBn+M3LRRRdyGR555BFauHBR4DykEVUG3PPgwSHuQ3ZbRuUFhB2DAIobA4DdB5CWvY2ymLaw2yhsXDV1AsLGFEFwmWS/SK+EiRYq1NlFfSNVVMNRnhwN+3+7WNcoCXN3Z46qmlqUxFpGS+YT9WTzx/bsHaW6ufBntdDCJnVsa170bFOCK0oAFaIE3KIU5Tqt63vVfecgg+59EVLMqlyOP7NmzaJjx45ziCyX62fRgwEN7u5HH32U9997773+AHXOOeeoAeiXvP+1136nBqar+XwMMGb/D37wQw69wQiYwQT78bEHlRdffJEHo6GhIQ7P2YbUDGDYj+uee+45/14YmHFv7McAh30u2AdvFARUFFH5xqBt8oXwoTvYYo3Y228P6a1w8EAgjHjppZfwtvG6jY4e5m2AdE29PPvss1z3NqbuvvOd77Lgiqpjm0xmMa8nwzmoOxi2YkTVNdJGeBb3wn4YL5THpI+PWzeob9Q76haGC3+ffbYXdoWnDyIAhPU7gP5h0kYbw1uIe8DowYB+61vfLhBcYX0Mxu2yyy7z8472xPojU1/2/VEeCC70JZyPEDDqxD0Pz8PFF6cL6twQ1Z/M+TiOe0C4Rj1fBghetLtJB+0Qlnf7mU36XMTl0Tzf6Pfg3HPPYcEFIQ1w/Rln1LDgcjHlMyIH4B74oO+jbxrc+5jnZPr0D/OkBNegLCiTe16xMkBwuW2JPKH/oB+59e0eQ79duHAh9xmTPtrd9IkkoN+atjB91kxIsA8f1IkR7BhPMK4IwnhwAr+92EUDvm1UYuqWLNHiBOG63DCN6j+VpqTmlfkw3+r5VVoYpaimepAGbK9ZGaR0fvizWKVbW6/kGBh72kk4dOgQPf64t+YJAymMJIBgwMDjGhgM8sboPfPMM7x26WMfu4Bndtdeey194xtr6Prrv6SU+Ed4gMEA/cILL/D5pTBz5kyqra2lFStu5DQxO8S96uvPZiNp8gzjhMGtHJDnsHxj0I8DC/2TiBl4M1AHMBIwsq6hwv5bb701UD7sAxjkMQjDIIAkecW1aD9T3zAsMJjFiKpr0xdg+Ey+IKpmz57tCx0XO1QCkdXf3++LMHhCTB2E9Tucg/729a//DecDxrOYIcI1YX0M7QPxaLya6LOHD4+w+AX2/dGe6EM4F+IW/ctgn+em4VKsjcw90C5Rz5cN6jgsnbC6S/pcFMujeb6RR4gC1OO+fTnuD8gr2vXo0aP+GGBjymf6ir2W0owVprxh9wFHj77rXwchcvDgQf880y7FymDa3WvPEe7fpYDzURZTRqTzxhtvcH9OCvKO/guhZUAZ4VFDnvFJ0r8FoRzGSXRFeKpSNVQ1NJDQw7Sd1rUtpbY2iK/v0e2L9G6XQJoI6eEa6+N7xeqoPiqNRIxSz2YnbT9c6KS9qF7tKQ14bKZNO5UHqFKBscdsETNKCAMzkEaBwRIzQjOLw+wOogP3Rz7KAbNPkx4+mIXCwBgxMB6E5TvMoNhgQIXnoVidPP/8C5zXq666qsBQ4VoTesN94fXAOjAbW4SBYnlFO5db32F1/dvf/pb/hUfhhhva2XuB++G+AIbDNioAxvHtt4fZQCGEBDFkPH6oCyPKwoBwyGQytGfPHs4DPA/FGEuZJ4Kk/anY8wXBBYOMNODlgdCKY9asGq7fJJTa5yE6IHggNuFVe/311/WRE0c5z20lMV5sTLr+7u/+1veSIUxs8oyPmVQJwngyTqLLC+2lFtm/cbWM7lqcolxvPgyXDFfApajVXyBvp7mdevtTlHEWuHvgWBU1t+fzgzVd+bwVA+WhwPV5dNoZ67e+Ms1Upf9OCmbtwF7QjbARBlAMpMXAOdu372AxgBkusMUG0kVav/3ty/62jRmscc9SgUcFa5lclz6MNoysCUdg5owQiIvxJsTNcsPqJwkQU8AOlyAfX/7y9XrLwwgQrE9xDZUnFvLhT0+knMp/gxdf7GUPAIQZ6jtJXk19m3NwHcIuBnh0TJgI+UX9gqi6NsCYPfzwPwc8FQjhQRSZ9GzgfYH3CSBPKDs8d7g/6iQKCAdgBFRY2i5RfQzCGOFFk1+UDaEmeG1KAe1k+n6xNErtT2HPlwGCC/UFcKzYxAl1nOS5KLfPQzzDWwtM/4/CtLHdJrhf0nGnGOWWISl4HlB35nlAXZ511lncr23QT/FMmLZzn2EAUQWvHo6hTyJd0ydt4AUz7S0IY+WU2bNn/1f9dwmcRwv/4pM0/dWH6GfPeXtee+J/0uktq2j5166jL30JnyY6tXsTff2/v+ad0NBCn//EdMo99DPSl9Blf3odnTmINLCQfh3dxNd9kqpf0NfxNUep740WWv2/tRWk+dwjb9LHvryMVi819/wz+thb/5O61IT9uUceCuSn6f1u+vYjz/M9U7//Jf34CZ3+HxP1/M8uQorn/cnn6ZMfydFD6rzC8lxHV37EK69739OeyNJw45k0aMr2x5+hLzUcpX/X6Ybx+9//Xg0MB+mTn/wEXX31Impp+RM6fvwPPMPGsbPPPos++tGP0m9+85vA9v79++n666+na6/9NF1+ebMa0N9gT8xFF11EH/7wabRgwSc5NALRgLQwyLr3ufTSS9Ug1U99fX1s/JAW9iP9Q4eG/fvW1MwK5KG5+Y95Vv/EE7+gj3zkdHVNC19nru3u7lYl+w/2HiEPjY0f8wXWSy+95BVcc8EFF/AicuyHqLjkkrTKy6V+esePH1PCoTs038gDZvVXXbWAy2wbC+QT+UBeP/vZ/8TXIR+PPvpzXvx74YUfpzfffJNDEkeOHFFCdQ7t2dPF18FbgDU5WC9y7rnn8sCO61GmP/zhD1wPTU2NfP9/+Zd/UYN1AxsvLE6GsQvLK9I14DpzDsr61lv76dRTT6Vf/epXnBfkGceQX3gL0G5RdY3zv/KVG/j8dPpidf/nWUwhnINzIOp+8pOfct5s3n//fa6711571a+3pqYm6u19geskqt/Bw5VKNXD+kf7oqBfkR94B8o79qGOkY8DCa7ePoe7q6+tVH/HKBAHX1bWH+4J7f/RrgGMf+chH/PYDZ545V13bQK2t10SmYRbZo09EPQfmHFyLemtvby94vmzgJUR50cfnzv2oKvP7vnAPqzvU0e9/P1r0ucA1SfII7HoxbYpJhPcMUmgdmGvdNjFjhVvfwGyjTT/2sY/Ryy+/zH3KPCt2+6N/Yy1oVBnMs2P6nbkG27W1Z3DoPOy5sY/94hdPqj3/odL1+g76PvKA58QGeYx6hv/sz/6MlizJ+GX/13/9V8633SfxwdgCEYl8/uY3vw70a0GIAl/QQOg8bBE9f8bn24sTBH97cTx+vLTCJPj24nhj1vFMlW/YYEaJ9Ugn8odgTzRTrc0mEzCm9rfTBGEikH4mlMqEfnuRF5qHhvc+uPDvd2HRvRALhBZCdOWEN08GosIigiBMDuD1vPLKT9Arr7wigksYN8r0dFWIqerpOgGI12TygzbCt6IMWHfl/qyDkAzxQAiCMBkp5uma3KJLEARBEARhijDJfhxVEARBEAThg4mILkEQBEEQhAogoksQBEEQBKECiOgSBEEQBEGoACK6BEEQBEEQKoCILkEQBEEQhAogoksQBEEQBKECiOgSBEEQBEGoABMkuvAC6+/R7Yv0piCMEX69UpmvnGpZ8z26f02L3hIEQRCEE8MYf5Ee4ipD+TcN5ijLr+zB/lYa3nwz3d2pD1UIGNjV84l6Iu7tHR/U+SwExj3jvZSfRrs30U0b4l5Z7ZW/ruh5hdj3of4sta3drjeA90Lx5mpvq3g+FHjJtv/OR9MONuXnNZzieSxW15UC+VhBD4xTuSc3X/nKDfTqq68GXi9U7BVRuGZk5PCUfYUU3mOZyWToySd/QQcPDlXkReqf/nQrXXnllfz38ePH6bHHHqPu7md4u1zwrr/rrruOZs70Hqq33nqLvv/9B/nvsb4gHn2gunqGn95EgXx+4Qufp9NOO43ee+89fk2TnV/ko66ujtvqqqs+VVCeuL5arJ+W8mqoYs/EVCGsH86cOZOamj5ODz30kF8Ppv0xNkQdG2vfOBn673gwcb9IDyOvjDjtXkptbfqzeZjSJ8yjAFGxQxnXPiU5olhGS+ZX6b8LgXHOkBJAXJ4sDc5fRXe164MhtKxptQRnCai6y9T20Ea+zybqqc1Y9/HETE1nvl4TCa5Fwzo9fApFTtl5DSVJHuPrWpg8YCCbysYHg/imTZvGLHqSAuMPw7VlywP0zW9uoAcf3EpnnXW2PloeEAw33NBOe/f+htPEp6/vt7wfoIxHjx6hefPKe4rRvpUQXBC/e/bs4fx/5zvfDRhYHD/33HP474GB10suT7F+2t//Kv/b0HAe/3uyE9UPMeFC3V599dV8HvoQXq7/2GOPxx4bCydD/60UZYouJXAW11HP5qW0bqveBTrvoXVhAgEvrlaCaKf++AKD999Jy1nAecfcMBCHlfzrIKzU+fpYkO20jo3/gN4uZPl6JRK7e2hUbwdpoYVNRD1Z43HaTru6RymVjghpqbyvaOqjnn69XYAnAoNl9UKuLXPraHRvF3k11UV79o5S3Vxd7vYMNe7dFKzXWJQAUmlmb7lHpxdC0bxq0A5WCA8idOd9t6k75Le5fRLkMb6uDRBvdhjaqTPe9tob/cD0De/vZepa0zecPmH3N5X/eXq3we5T9rXYHxS/dn+08+rl07u+WBjdPlf3dVPHsf0/X3ZDMH/CiQBGZNq0aQFPAf7dtWsX/10ul1xyCT377LMBD+UTTzwREJIvvPACnX322MTdRHLFFVeoGf4bkeLXHD927H3eHu/yoB1eeeUVJbrGb3o5WSnWD1G3EFMQuuhbL77Y6wvguGPlcjL030oxTf9bGu1pSo300caEocOWBTXUpwQah/tgYBYrY7LVeGPU7CgN79IdnhFaeaMyYl18bt7z5AkhGJ0M5aiXt0pE3ZfTeqqe7p+v9wVIUU31IPVaZeraP0irm+pZdAQFjTLA7Y3Ut/VmGsjsoEa9N4gSgbvTtFOVqWXrPTQv06xEyCavDlIq3UUtKhUIL4i9Khrs9O6wPJ2iwQMtyhivIs9PFBYqtFDpNNIwEYREaFg0SV41W9XDtzPNhh73mzdHpUU1LFq8fJJKp4uWZ1bF57FoXRsgOG+kFQtUDaP8i+qJRowAVdvoZ/29tE5tBUSVomp+K5HqU22qPrlfKCGzjUO0SqysVOU1/Y37lMplN1/m9Sn2MmqRiv6ohNk+JVq39eZoJ4tspKP6AyTjHAzgyBvquY+2dEJ8aQ9vUWHsngshpbZVmfJE9/+JAG76Cy44n/827n87JIm/EaLDOQgR2SEC+9rXX3+dZsyoDg0X2CGPd94ZYcMAwkIPJuwwMDBAF110IYekHnnkEVq4cBGfa66HQXHzZo7NmDHDD124hOUFnhCEoQCu7ejo4FCXydvTTz+tzn0nNFQFg/7228OBfWMFdTB9+um0b1+44TPt8/zzL3CeYHCNMUObTJt2Cp1xRi3n/+WXX1H5G/LLjLKgXXEegMfAvcauY7u+hoaG+N+enh42qqaP4P6or2w2y22P9HDP00+fTu+//z594xtr+Dq77+CaM86ooZde+jW3M4Bnyi0PQN5uvfVWzpsdokzST1GH8P6gTk2/dMNeqBObqFBxOfXkCk7k88wzz+S/0TbPPPOMHwo39zBhM9TDNddcQ6ecckpoaNamWD9E2jjnM5+5lrfRdwxxx8qh0v03qu2nCuWHF4cGPKOVgK4Nd+SNCAy7/tNDGWyznkkZ3r6RKqrhiQrCU7bnSQmBteoh13+XBIzZYsrfJwxl8Ov0nz654VBPzfL1q6hx7wPFDaMSltmhZlqy5jZqVYZ+ixFCan9bZw2tZu+GF6bzvEYtVF+rOrESN1t02G5jdx0LikhSNVRV3Uw1vd75XlgUhts7HJ1X2wNjPCg5Gh5JUZr/Xkbp2j7qGzLbECF9tEeJjtg8xtQ1e87MPbUHDcK2qgkCVB1foCTh3j4isz23jnK94W022p0vE8QS1XrimMOo/R358nbeQ1u6TSvqPqVEsN93t2apR8kpZeO99m7wRCcEX53Ky6DZVvVM7J3sogE1xvqeSZ+Q+mzPULNKfZcvziDE3R4c1f/HHwyOWE/zgx/8kN3/UQMVBjMM+DgPwgqDJIwMQkPm2iNHjqqB9sP6ijw49+KL0/559957L++H0RscHPRDD8AMpEhn9uxa3v/aa79jAfX007/ksAm49NJL+F9g8oZz7TBJGMjzeeed598T9zfnz5o1i70iCIHV1tZyWuY8DPJRwEDCKCQBxgECxP5ATEAE2KDs8P4cPnxY7wkHBjbMk3POOedwfaHO0UamzDBYECDu/YC5xq5jtN1ll11Gjz76KF+Pe6GeANZSwTACc3+EipA2xNTx43/gvoJzkCY+MMRoA5wDYwtR8u67R/laUKw8yAP6wzXXhLdxWD+FSEE722GsTGZxoO+57YttcwzeGghMQ6n1ZGPEBs7B9agntDU8S7gH0sG+bHY3/406QogQ5z/33HOR5QZJ+iEEHtoA9e6Ks7hjhsncf8PafqpQvujSRi4ZtkGyF967eAYtzyANFBM2RdGens1FFnN3Dqi7OUDQ6D99tBcn6aLsbdkeqpsPT1Pe0HN4K92rRdJS6k2rbUtY5ZRQMOd2PdWXFwJRjAQNe29/FTXCexSbVy8ca/LgiT4r1Mmio4vuVoLGbKcsoR2ex/i67tpws3+/NhMOhQivhjcNnrRB6lV57WPvmudZG06ish1xPHog7iK3T6HPaaHDoqeO6pUAW56uo76n7lF1abZTNLjfK/G2tZuor2kV9+d8ODCsPhUlTE68vOg/JwAzKELUhA1kBgz4MF74HD48omagM9mYwgCamTcG7aNH3+W/bTCgIoRkz9DhTYKoefzx/LoRhBpgcGbNmsnpmDUlMCQHDx7kmTAGaVxnY/IG7DTCQJ7hZTAGAwM1jBU4dOiQP8OHV2v27Nm+CAS4/9///T8UGCRbfBQDohbGw/5AhLppYtY+bdqpXE9hIB0jFOBNQBns9svl+jm/aF98UC8A5TKhPBdzDfICQYIyoZ2Hh4d9LwTqB/UE+vtzXNcQ7rh/f38/X4M8Hzt2jD2fAGt6kKadLkQPjK1J1yauPMCIA9zXJayfAuTVhLGMFwbpRIF7Q0ygj8DDgvNNfkqtJwOuRzpID+muWHEji3tca9oSXi0jerAfx3FeWD5ckvRDiDbUy5VXfqIgnbhjhsncf6PafipQnuhiQ6m9A0WB4MI3GY1BKsVb5Rk8nzBvVDHgbaiuouaVWvStbFZCKkWZ0LU4wfvB0xI0mkpULFIPf0PGS0t98A3EqvnKAEd4o5Znmmmwf5Ca283aqGWUbhgNevCUMPNESxlGN8IbR9RUcl4BBBQ8TcvnkhIdquQqfW/beJ1i8lhSXRsgEuFNS1HNUK8Sa0hfb7NnTZ9WAlUcEswzb44tnZ0+pVqlvnZUizuITlKCdRnV63vvU+MLb9fmqNcXtkqM3oK+7Imv2HVWzuSE+9QEEjcYY7DEoIlZJRa9YiabFAyUSTw8Sc+rFAhX2EYjzLuHAf9b3/o2/w2DB+9MFCgbvIVRhqocjBhOssjYCE7b+zdeoN+g/4RhFqkjj0eOHGHDiLZuamria377298WCGRQUzOLBa0RH9deey2Li2XLlrIgmojyIK/Tp09n70cxLwzaEV5YswAc3qsoQ2+IqycbpGO8YeZjxEfY9QiT2eeGCRxDsX6IPgzRBi8a2sWu37hj5TBZ+u9UoUxPFxaZkzKujjFddBvd5c/8NSyULO8CPCb6z3g8j01zJi8QIGAKPE/FQCjP8kC0bcbibqxB8n5SAl4nz1uhy+Tfzw5vYm0OQkbG2OY/2X5vDVXwJx808DTV9tCutQhhNdMSNs6WJ0qDsFrVyDDtU38jVJbCmjfvkFfmfoiRCOCdUWmvMPWu2qBVibq+p7aUllcDPH5KULc2kddmnD62B33REZnHInUdxb4Do1S3qJXqtIcK6fO2/2WD5Hhet9Z8v+T60H+bPuULYAWHAPPizgt3tqoSe2LbE6FqmwWhiydAC0ONGp6cmHYHpXyj0w71KtCX/HJEg8EYLnrjGYDhwTZm/waIjIcf/mceeMM8CGEgTGK7+rEoOiy8iPMQerHTxaCMe5nQHkB4BWtSDh16R+9JBkIPhmJpuHVRDKwXQUgD90C9fe1rXy0wasY7Bu+NAel/+cvX6608ScMzMKww+pdffnkgTLJkyRLeRjq2EITgmYgFyegjZoE1gGE0YTPkEXWNuoHHB8YTHq7Gxka/b9l9BGkgrV/96lcsaI2QgAjBGqjt23f4Btgtjy0m0M8gDMy5SUBeTRgLAgxeGLvv2cA7gwXp8KoAXIPz44irJ9NvAOrHDlUa0JYQrFg7hpAiyor719TUBNo/jrh+iPTOP/98nlyhLlC/CPnjeNwxl6nWfz0Hj9EkxmbzAcvOn3jKW0ivQKioC4uQ4dVYqXeO9NDGW2CqrAbEmpoF3+P1Sxlsqw6b9PFBGKf+PoRx+ErK7c5SriHNf08EXRseoIWB++nF2OXAa5vwDc87POO9tYXuh0jNKQHil2uVdy7Xmwm33UEb59r1lY0XSeqqu29Jqc5m0huN/I2yZECYZNS9O7TI8Ba7Nzd5opApOY/xQNisQAgWnjWgxMrgYpWyDueVhOpvN6WsfqnqNts9SuaR37Z2KX/pAHlfjR123QMIJdy7U5cHorO9mRr9kCUe5vzvk3HZI0PN22nd5nrV7iovPDYqAbpbCdZEXVi1a2dGXaevVffJwiPoHYwEM2nMxK+//kt6j7cYFUILA6v5DSWzH8Ysbu2IAenC4CL8ARBOCgsvuvc3i4+xyB33xsANMKuHyAkb7IuRNI2oujAG1gCDYBbumgXM8JCEAQMDD4QxSMBc4xLmVYsCeUW+EHKCNwjAS4d2cw23vQB9PMG9IDpMfUEc2WEziA0soDcLps2XKYwXzNS36SOm3xXDLQ88RPDEYkG56T+lgjxCAEJUuX0P+TKg/yMcjjrHB2Uu5ukqVk8GeJLgRbP7yUsvvUQXXXQR/6yGaVsIJ/QVhMhMPgDaH3V+4YUXski1ieuHSA+Cz9S9uY95zqOOucJ2qvXfqcIYfxy1wkDIKOW6Je7nEQRhEoMvE5wMP9SKARMDJwZ5GIBKAAMDbwoG+A86EIoQOBCdEwXE7Fh+0LIUJqI8WKMHb+dE95eJrCfjITrZ+nwl+u+JYuJ+HLXiYJF2s/4G2QePwDf/zMf6DS1hCqAmDSvm67VyUxzMXsf7pxOE5MAIT7TBKie0Vy4TUR6kVwmxMpH1hDCc65k9GahE/52sTGpPF//+kr2OZYxhLEGoLFhjEPy2LkLWyX/4dvIAz5b5DSFwIn4bRzxdE4sbfrZ/l0rII/UkxFHM0zW1wouCIAiCIAiTlJMovCgIgiAIgjB1EdElCIIgCIJQAUR0CYIgCIIgVAARXYIgCIIgCBVARJcgCIIgCEIFENElCIIgCIJQAUR0CYIgCIIgVAARXYIgCIIgCBVggkSX/bZv4QMF3o/JrymS9hcqB78ma4Jei4U3Y9y/ptIv3MIYeictx5/8TMnz5IF62UF3tevNDxgnpi9OFqxnYgozxl+kd19zkqNs2x20jfe30vDmm+nuTn2oQmDwXT2fqKfg3i10+32rqLna2xrt3hT60mH71UNR53j3qNJbipEe2hj1Em4MmCsbqc/KT8H1NJrPb/udtHNxKuR1MajTNPVy/Xr5bD3g5g9lvJFoa0y9c36ayb+7n/dg+nms/Zw30m0cTni+yiSyLjy8ehy08hNsY78/Ip1FwyFt5PZTbIf153AK+5p7f4ObjnsfTVg/ctorqi6439YGr4/sywnS9K6NLn+wD1vn6TZz8e8fuLfV78Mwz84jfdT4pzXUUZAXr75rOif21Uqxfdp9nsyrynh/WJ6TEvU8lofdF8BUfR2VS2zbxFHkGSjv2Qk+11H2I3SciLMhFmWX96RgfJ+JiWLifpEeg6vqYKQ6XVub/mwepvQJU+FokB20gvqUCXDJD84mr2GdFoYkQ2rQ5HOyNDh/VeSMCg+UX+6Yh2V5ppkGd+cNCx6a1U19tNFci8/uQaqx7dTIKNUtHn9Fj/LtZAFo3buzhpYknTVuvYM2dtdRa5E2Htw/jgMC6kINdIV3XEZLAsLVa+PGvVa77B6mengHtvZSrrqRFrqegvY0pfo7vLYpqT9H9bUuuvsW63r1yfajr2SdQWI7rbPOaWvbRD0jagDvLOxHLQtIGW593u4cpcL6haqfVvsdpYq4vhybJoyKKlv6QI+SRFGoup/TodNeyn0iY7xMqo+Y/fzZjHRy1MHPm6o3ZbAGTR2rft/cHu2d8p+dv++ivpEUpd1+uqiFGqmHdp0o8cAGOPg8ZQ/UR5bnxOD11XxfwGcTDac/2C/LX56BINb1ofpo3eK8JzHu2Ym/Lq0mcPpYEfvhTTjMuarfDDXTig+sB+uDRZmiSz3Ii+u40wRmS8porAtT4Hog36k/fkfk/WrAZ4PnHXNdpxAp+eswgESJEc+Q3bRhQG9btGfYGMfP7FpoYRNRT9a8UHs77eoepVR6md7OM29OVTJhwcYwR736vv7D7Io0ZagCeRvqoC0wZOsL7102Ki8r2CvkeBbcexeh66k+ovmZkDaA6PFmh6nFqr2MEXba3m5fFoHrb+Prdka161CfkjaFgqllTSvVdfc4omeU+p6yanbrPbqs26m3v4oaF9h9S+V3UYpyvWjvEvtzXF+zQfvX9tCWYrNS1T+bh7Kh7dC14Z68YIN41H/mUeVoV4a/2z4S35dj01RlvkmVbd1TejsUVX7rxfPoE6PVNTRPb9t4wsl4wSByrXJuzSrJFCKGQeDZ6aI9ewufRaRNe7v4WfL6Uv64PW6YPod9ASOIcce/xhMnYf00lpE+2mM9T9tU3XYhXfaGpChj0sJzEAh/4nkJhgyDY53eCfgZsp+PYF7tcrssX59Rz4maiFjthfq8e21+DLLvG3gO9X1vR93yMS+/XNfWtgfypLbX5MdyLoM1tttlimsL05b5fIXcRwluM95UKXHD+S6op8J+Ydi21vKWdELUV+mJb/yzE30dnqs7rLEVYw5R3dxk/Whbb46q5uRn3nabxPXFqPPybYRPsE6irkl6z6JwO+TTyrdzaX0E2Hlyj01VyhNdGDydwSaOlgU1+dlgwWxdDUzpXu+YmjnQ/Bv9Bwwdx56h9aZDQjIJWJ5O0aB6mPIdIdgJPVJUUz1IA1aZuvYPEtWGz1xZWESm5dGyoJGq+nv1Q4qHuUob+eJ0bXiAemoz49bRgnkZAzzQ1HkepACelweeHbjcPWGpHjLbs6Fm2H1NzuyvoVEZXxyLchkPqIFskJoz9sAJLxcpgWWLHhhmouaV4e3Bg1pTS74t4SWp1ka9xP6cFBYcId6rIBB/SvD5g3wMLFqCbdiy5kY1oXiA7t6vdzAl9OWQNEsmVRPet9TgC9EZ7YnqooGhvNGycfsrC7uGtNW2yyjd4IhsjTtuJArFqHrwvZzOOBQJngVqptWuUYe3T3v4sgnvn3ysg9jQQkqfm1VXhhvJ6Doy8H0RltZpte2mvNeSSSlZ/AAf29iN5wseXms74KmsouY5eizncV6Nj2Zsj/LSRtGQoXSvl6fC+4D8eONFHdT4wWOT7RF1BVQUeF6MwC/FDtjXubRQfW183efBGGAmgLpN/L4QMmZqos9T5Z6Tj6Zk+5WNtQRt2LOR9J5JiLf3yfuIm9dy7f9ko/zw4tBAEWOSJzADKJitq4HJzMICMwfPsNoPzLa12ZCZfjHQ+dXjoR6+LbrxOBziDpSL6qlO/+mTGw4NsWxb66XjpxWzgHf0gJ3jURq2NtGpjIovHDTVoLK1Z1zDjMG8lEu0oXSBNyrg2UCZOtWDZXssTHgvDvSZhta8EWShUHhd14ab1YOrjEaYGHa8KgUitIT+nAgIDsvLGQm8XMp0Rws+y6uBwcn2WKgZIkLVBZ60on05Js1SwawWXsIQw2Z7ohjkwW5HriP9dwiB/qrEa4cyHr5BjRHKcZOlSGyPL49D+u9YtOFXpoHrMsSjkowSxjruL0Hv6basEon2hCJAUEAE0ffdak0MCryPJjSsSgvh624HPJyj+TLwOO9uh03WIrDGjThPahDPI+p7lzj8HPdsASNi9RKAxHbAuc5h+fpV1DwUN7Yp8aEErDf+Yx2u8bK7fcEpk0/ceapfWp5MTDgN4c9G0nsGbVbUF1fi7X3SPlLCMzHFKF90lTSoWYN82AJiHxh0/ScTN2CUhr1epnDWrOgcUHdzwAxe/xkFe6QiQiQIQwYJihUWCSzcIlbPqDyPZ5jRdl9XigKhhwGsVIPILn7S4cEiniGzpojFlx2W0J4w9piFzIBLzlM8EHUUMSDbwAsbtpYrj7X+qzetnh9TJvVM4UsNYesJi/blqDRLgwdgJYK2uCFrBl6WvIFmVDlvwjouY2zUtX39+phD4bPjGY+UEmpop9h6U31g495GWh1jGAqBETVjVNiXIaIxkzAWX4nv51LCWOdOENDekaKkmNBx75t8UlUxwvpzBBjbjQDlZ9AW/S6YMGjB43sjk9iBsOt8PFvHXrrYyUx+TVe2XwmwgCffFmQ7+Asr4WN3zHlWyC7wxZbIZyPZPY3N4k/kWuak9r4Y42f/JxPliS4o0rCFyaGgAfANMd1QbaWoVWfACJuFFMUVcnEE79cyV92tqAcELmb9p8O+A7aY8mYPYWvE4ogKMyLtwoei0DVuCBWaFaAgjxjAyvAqdW3ooEGsJeP1T0m8Y1j0b4Sah18H7gy4pP6cBE/UFQ8teMKkqDfMoMqEARoGkb2I6j/Pq6c+GFirm9Vgajx8CfuylWYpQHBxmClq4I0KW6r75QftAaqJKH/w2dH47VS83vwJDQxM0UkLBJf9RRvviw2lsm2tui5iAlacEsY6d4KAc0eGaZ/ezBO2ltHFFWVeWMz2yE8plBDvGEIbFHkGIZwiJwwxz07sdbB1+Hadsza0COzBsT3AykIiLO0/J/iECriI8yC48G1ts293sDHDn42k9yzGWOy9SwnPxBSiTE+X53loXunMkFWHvMsNk3FFWUIAg7H+Mx5vwLBnAAhXFPM8hcEzZCtMx+log4CFevdznnWZ/PvZ7k1vFuwJH9WprEGcjV/MeiBbdEA45BrUbLgkz5UJMwZnDJ6AsB9UlEWdE2boAAYjxPbdsJt6QEuL3ScflL082oIRXqr82oXSQH9Q+cdPSIReH2wX3Atr6ALoNR+t7e4MuIT+nISIsEa+r2lChYnd19Tfa6wyqfy0Nnh1H5hx4oOBFV8757VxRfpyRJrxWPlS16wIC2tasCeqSDt7i7yjvYGFkwotItoRto7o5w52OAVCLj/pUf3F9wBgsmLVAa/303/H4T47cdexNyovyLAWL+9NK2GsY+EZ/KZbQRjXgkOP81c5yxdUW66Hl0Pf114vVTTcPT5Et8XY2dY7SI2ZDDVGTs5U+fHlEzus6lPk2Ym8zuvPtDtqbWoc22md/01ePc4VtRHR57kTLDyLYeSfjaT3TEDZ9t6lyDOhxqD8lyYg9MzYbY1Tk5Syw4s86NuhAnxUQXe5A7Ey9hwiM+ekoamTwTPHWr1eQn3SvWWqZvZ65PPAi/NCVLzxKnn3wwMUNptRQDjptPjnHyJm+yw6ArNSL6zjrwGx0oj9hhvXoTPzV/sCoRr14QWxMbMThEHseuBPutealUGUWcfCQiVsWBK6fZFH/lq1SXNsv6kEAzKqhEX4wmw1WB5ozedd3QvfWA26/z1vY5Uydu4MOHF/TgCvF0vgzcNgGL/OrosG5lh9xfm9tzii+3L5afrAW8leNZ2G/uQHOm8Bd6GQ8wZEc37c7w0VPjse/IWI6vgvpATWnVghWH/Sw8fS1Ot7ALTRM23fXkODSTxdW7M0vEhfg49dl/4kZ0dwUqfvsYI6At605GMdxhDv5wjMubG/24Rn0Dmf1xBlvTrBmICfK/DbMvT37Maf6LYoDSMqA2s4lTAdbEjRYGQfgcgOhtP4o0VH9LMTd51eO+yPdfqTNNzMa+m8L2W4fSEq/B91XjD/qi9ZPSnq2Uh6z6KwrSrP3ruMm/2fZIzxx1ErDNStGti3VGBQGC/g3UB8v1yhMdkwYaXIQV4QxomT7dkRKgU8H5P/RzSFk5OJ+3HUigPXbrQbfbKCmZj9A3pTGnxbbv5gcHG0IEwQJ9WzI1QM7zf8in+JRRBOBJPa04WZrv3qCv8VG4IgCIJgg0gIfpQ24St1BGEiKObpmlrhRUEQBEEQhEnKSRReFARBEARBmLqI6BIEQRAEQagAIroEQRAEQRAqgIguQRAEQRCECiCiSxAEQRAEoQKI6BIEQRAEQagAIroEQRAEQRAqgIguQRAEQRCECjBBost+67fwgYLf/j6GF6YKQhnwi3yTvly4RPBmDO+l1ZUEY6h+iTM/U/I8eaBe7Jerf7A4MX1RGE/G+Iv0eAAylNJbeJ94ll8yiv2tNGzeuF9BMPiunk/UU3DvFrr9vlXUXO1tjXaHv5nffvVQ1DnePar0liLutRP8aopG6rPyU3A9jebz234n7Vycotxu90W/qNP8S1yRz9YDbv5QxhuJtsbUu3lVht7M5z2Yfh5rP+eNdBuHE56vMomsCw+vHget/ATb2O+PSGfRcEgbuf0U22H9OZzCvube3+Cm495HE9aPnPaKqgvut7XB6yP7coI0vWujyx/sw9Z5us1c/PsH7m31+zDMs/NIHzX+aQ11FOTFq++azol9KXZsn3afJ/OqMt4fluekRD2P5WH3BRDVj6YasW0TR5FnoLxnJ/hcR9mP0HEi4auLyi7vpCBY7sL6CdYf1y0VtzmTjYn7RXoMrqqCSFVMW5v+bB6m9AlT4WiwHbSC+pQJcMkPziavYZ0WhiRDatDkc7I0OH9V5IwKHcYvd8zDsjzTTIO784YFD83qpj7aaK7FZ/cg1dh2amSU6hbrWe44gvLtZAFo3buzhpYknTVuvYM2dtdRa5E2Htw/jgMC6kINdIV3XEZLAsLVa+PGvVa77B6mengHtvZSrrqRFrqegvY0pfo7vLYpqT9H9bUuuvsW63r1yfajr7gv391O66xz2to2Uc+IGmQ6C/tRywJShluftztHqbB+oeqn1X5HqSKuL8emCaOiypY+0KMkURSq7ud06LSXcp/IGC+T6iNmP382I52cfkm6qjdlsAZNHat+39we7Z3yn52/76K+kRSl3X66qIUaqYd2nSjxwAY4+DxlD9RHlufE4PXVfF/AZxMNpyfGKzhVWJ6BINb1ofqo/WL1uGcn/rq0msDpY0XshxoV1ITDnKv6zVAzrTjJPVgta26k5iG7Xm+0vLfop5gA5+uExWxCmzOVKFN0qQpaXMedJjBbUkZjXZgC1wP5Tv3xOyLvVwM+GzzvmOs6hUjJX4eGiRIjniG7acOA3rZoz7Axjp/ZtdDCJqKerHmh9nba1T1KqfQyvZ1n3pyqZMKCjWGOevV9/YfZFWmqYwXyNtRBW2DI1hfeu2xUXlawV8jxLLj3LkLXU31E8zMhbQDR480OU4tVexkj7LS93b4sAtffxtftjGrXoT4lbQoFU8uaVqrr7nFEzyj1PWXV7NZ7dFm3U29/FTUusPuWyu+iFOV60d4l9ue4vmaD9q/toS2haVio/onBKKwdujbckxdsEI/6zzyqHO3K8HfbR+L7cmyaqsw3YcB7Sm+HospvvXgefWK0uobm6W0bTzgZLxhErlXOrVklmULEMAg8O120Z2/hs4i0aW8XP0teX8oft8cN0+ewL2AEMe7413jiJKyfxjLSR3us52mbqtsupMvekBRlTFp4DgLhTzwvwZBhcKzTOwE/Q/bzEcyrXW6X5esz6jlRExGrvVCfd6/Nj0H2fQPPob7v7ahbPubll+va2vZAntT2mvxYzmWwxna7THFtYdoyn6+Q+yjBbcabKiVuON8F9VTYLwzb1lqek06I+io98Y1/dqKvw3N1hzW2YswhqpubrB9t681R1Zz8zNtuk7i+GHVevo3wCdZJ1DVJ7xkLt4HVXtz+3v1hN73xFnhjsqk7jOdkOSdsom3O1KQ80YXB0xls4mhZUJOfDRbM1tXAlO71jqmZA1nqFx3HnqH1pkNCMglYnk7RoHqY8sY/2Ak9UlRTPUgDVpm69g8S1YbPXFlYRKbl0bKgkar6e/VDiofZ7nTxdG14gHpqM8GBaQwE8zIGeKCp8zxIATwvDzw7cAt7wlINkLZnQ82w+5qc2V9DozK+OBblPh5QD+IgNWfsgRNeLlICyxY9MMxEzSvD24MHtaaWfFvCS1KtjXqJ/TkpLDhCvFdBIP6U4PMH+RhYtATbELPHxr0P0N379Q6mhL4ckmbJpGrC+5YagCE6oz1RXTQwlB94bdz+ysKuIW217TJKNzgiW+OOG4lCMaoefC+nMw5FgmeBmmm1a9Th7dMevmzC+ycf6yA2tJDS52bVleFGMrqODHxfhKV1Wm27Ke+1ZFJKFj/AxzZ24/mCh9faDngqq6h5jh7LeZxX46MZ26O8tFE0ZCjd6+Wp8D4gP954UQc1fvDYZHtEXQEVBZ4XI/BLsQP2dS4tVF8bX/d5MAaYCaBuE78vhIyZmujzVLnn5KMp2X5lYy1BG/ZsJL1nUdR4twXtxeO1Ltdub2zfd8CeOHl9c5hnfF47Dc/NC/TA+sxImzM1KT+8ODRQxJjkCcwACmbramAys7DAzMEzrPYDs21tNmSmXwx0fvV4qEbdojsah0PcgXJRPdXpP31yw6Ehlm1rvXT8tAKDVJDRA3aOTSfzQEc3naxw0FSDytaecQ0zBvNSLtGG0gWzl4BnA2XqVIOv7bEw4b040GcaWvNGkIVC4XVdG272jEaYGHa8KgUitIT+nAgIDsvLGQm8XMp0Rws+y6sBA2Z7LNQsEqHqAk9a0b4ck2apYGYLL2GIYbM9UQzyYLcj15H+O4RAf1WDeYcyHr5BjRHKcZOlSGyPL49D+u9YtOFX5orrMsSjkowSxjruL0Hv6basEon2hCJAUEAE0ffdak0MCryPJjSsSgvh624HPJyj+TLwOO9ul2A4rXEjzpMaxPOI+t4lDj8Xm0wZEauXACS2A851DsvXr6LmobixTQlUJWC98R/rcI2X3e0LTpl84s5T/dLyZGLCaQh/NpLeM2izor644jkM1HO+JujBx/i88UCrvt5eSwvxagl29QmGW5PbnKlA+aKrpEHNGuTDFhD7oHL1n0zcgFEa9nqZwlmzonNA3c0BM3j9ZxTcwSJCJHCnBgl2HBYJLNwiVs/wrGH8woy2+7pSFAg9DGClGkR28ZMOD2L2FOMZgpcBDy6LLzssoT1hegZWMAMuOU/xQNRRxIBsAy9s2FquPNb6r960en5MmdQzhQWmYesJi/blqDRLgwdgJYK2uCFrBjPZvIFmVDlvwjouY2zUtX39+phD4bPjGY+UEmpop9h6U31g495GWh1jGAqBETVjVNiXIaIxkzAWX4nv51LCWOdOENDekaKkmNBx7zsJDVxYf44AY7sRoPwM2qLfBRMGLXh8b2QSOxB2nY9n69hLFzuZya/pyvYrwRHw5NuCbAd/YSV87I45zwrrBr7YEvlsJLunsVn8iVzLjMm1es6VkPMdKvr5Ml7StrYHVB5tZ4Ml0BUFkYmTiPJEF2YtYQuTQ0EntBfIleKtcgaMsFlIUVwhF0fwfi1z1d2KekCg0vWfDnCn5vFmD+66lGJEhRmRduFDUegaN4QKzQpQkEcMYGV4lbo2dNAg4vq8/imJdwwLMI1Q8/DrwJ0Bl9Sfk+CJuuKhBU+YFPWGGVSZMEDDILIXUf3nefX0wFrdrAZT4+FL2JetNEsBgosH0KiBNypsqe6XH7QHqCai/MFnR+O3U/F68yc0MDBFJy0wCPYXbbwvNpTKtrXquogJWHFKGOvcCQLOHRmmfXozT9haRhdXlHlhMdsjP6VQQrxjCG1Q5BmEcIqcMMQ8O7HXwdbhG6fO2tAisFfT9gArC4mwtP+c4BMq4CLOg+DCt7XNvt3Bxgx/NpLeMwnexDjXbzkM9HKO/CTMi3p4wipHw2U8b1OVMj1dnueheaUzQ1Yd8i43TMaDhyUEMBjrP+PxBgx7BoBwRTHPUxg8Q7bCdJyONghYPOipbV0m/362y9VT6Z7wUQ+WNYiz8YtZD2SLDgiHXIOaDZfkuVKdk8OMQQ+hJyDsBxVlUeeEGTqAwQixfTfsph7Q0mL3yQdlL4+2YMTDmF+7UBroDyr/+AmJ0OuD7YJ7YQ1dAL3mo7XdnQGX0J+TEBHWyPc1Tagwsfua+nuNVSaVn1a9DiIw48QHAyu+ds5r44r05Yg047Hypa5ZERbWtGBPVJF29hZ5R3sDCycVWkS0I2wd0c8d7HCKu6bkLt8DgMmKVQdsIPTfcbjPTtx17I3KCzL+Jpd/bgljHQvP4DfdCsK4Fhx6nL/KWb6g2nI9vBz6vvZ6qaLh7vEhui3GzrbeQWrMZKgxcnKmyo8vn9hhVZ8iz07kdV5/pt1Ra1Pj2E7r/G/y6nGuqI2IPs+dYOFZDCP/bCS9ZzK8byl20Lq1sHfaRhWst9P54nzqKITfD1U9Kzsx6vfpoM2xx1H2tpt8Q2yW7WmuHNP0vyWDQd/7lo6aZa/UO/m3RlBNViMrY79lwffYnam6JFF/LrGnCzPHejUD5a/yK3K7MSNI898lAa/HXDsP2VAVD6/SwsD9loY/tBBO+py431eB6FjR7g343nGEdbZzp/GvB369RWDqUD38PmrfTamw+o82dAiD7FOd1K8HwHWh/9aeE/8Yp+d8Q48NyyB1JBmUkUdSM0PkcbG3y/09nFKAAWlVD234wmw1WB7AeoN8vRb+DgwebjUgYBB1ZsDx/bk0eL2YGnSKXYlBZ/RAVm+F0UUDc/L90QtJhH/DxyW6L5efpg+8ldUp7ker9S6Qb1u9SLagaBBucb/Tk6fw2fHABIqFd2d0P8dAHPwNMf18qknPElVur+xqPxZ383ACo5fOt/2IGqOSzLy3ZmkYIUndt4N1qSY5GfUsqTpq5XLCmLfSan0P/IxIz0grXwWSj3UYQ4ju2olzV/GeuHrkZ7ATHpj8+SafuKJLjQmkxiO/LWPGs/EEE9DwtigNHhNWevXm/5aTEqaDSHf3HXxOId4aopT9rANtF6Kfnbjrct7aYXx5wO8PiqT1ibV0i1ax56nN6QvBfpXH7TP+eW7+lc01RD0bXQnvWRQ1hnq/neg9n95zpSb6nXfQ3bekOPTq149lhzH+zrP6YaBPl2JzpgBj/HHUCqNm2OzarcCgMF5AYCG+X67QmGyYsFLkIC8I48TJ9uwIlQIic/x+WFY4sUw1mzNxP45aceDajXajT1YwE7N/QG9Ko2cxgcXRgjBBnFTPjlAxvN/wK/4lFmEKcBLanEnt6cJM1351RVRYUBAEQfiAg0gIfpS2QiFSQQijmKdraoUXBUEQBEEQJiknUXhREARBEARh6iKiSxAEQRAEoQKI6BIEQRAEQagAIroEQRAEQRAqgIguQRAEQRCECiCiSxAEQRAEoQKI6BIEQRAEQagAIroEQRAEQRAqwASJLrz7Sl7fIQThN8LjhadT4E3wwskD97sJ6XMnaJzDi9nXL/P+xq+wy1jr8YGuC7G5U4Ux/iI9GjpDKb3lvbUcLxnF/lYaLuct5WPEe4s6hbwhvYVuv28VNVd7W1Fv5rdfPRR1jncP86Z2RdxrJ/jVFI3Uh/yk1GC5OMVvrQ97ia+XLt7Qbl7UGsyzqV9SeWw9EJI3DMaLhvN5Ma/F4IOKIq/HcMvllx/ppntDXsGEdvZeLIs8ZSjuNU3j2yei29mD27HWKq9bF/qVUjhvIurS60fmeQDus6IpSCfpeW572fey8dKrC/Rl+x6jgTosnqa+NuaVXIHXd1n5dvuXwX8eUOfq+fCIKo/GPFe/GqTm86128kE+J3oMKnKPQHmc58nuW6US+TyWg90XQJF6n0JEPtvFcJ51d7y2+3fARsRdVyTNPG57KBK9/q4S/V1IwsT9Ij0efNU5SHWetjb92TxM6TUnyoeBTreDVlCfGjZcPPFS05nPa9iDCKPAwoHPydLg/FV0V7s+6ICHzS93zOC5PNNMg7utB2FklOrUA1hYS8toScAgeXlu3GvdZ/cw1auZzLbeHFU1tRSksTytBF1n3sDtZLGnr8Wns4aWhJYH99pBq5v6aKM5V3065mRouT6jGNvWbqKe2tYiM61BGhjHAWF0hKg5o2f8Nqp+W+13dvKAF6yL7IF6rr9xr0vcS/XD9IEeJWdsttM6cy1/VH2p/Jt75El6XgstpA7/vGx/ijLG+2GBl/8GBnBua+u53a1Ey8o7dTvHp8n1oET2cHewZAFU+dPK0PlpDDXTap1G14ab/f382a2eVCXKdsH4oN4W1ykB6B3b2F0XWh6D/1yt76VcdSMtdPtde1oJw44TZ4BYcJESMKa8m9TIFGyJE86kG8MnB8szNdTh10fwpetxNiLuurhjhUD46nPx/NdmIu2QMPUoU3QpgaMHyIBaV4ZhXdisQhsiDi2pj9+BeL8a8Pnh947d7zzwmFXkr4OwMgbCxTNWN20Y0NsW7RkWL+EzC4MyOE1EPVkzo9hOu5RxSaULB/55c6pocH9IOV1U+VobctRr33eoTw2+hUbCezN+jyMYR6nvKes+W+/xjMjWEENj30v9vYI9Zs6sZ+sdoXXQsuZGah5SA4kjHretLWXG20V79kaLoPt59qaMuN3GvD/fvnbbo93vX3MbC+nI0NBeJbAb0gX9gQ2yqsuANBjpoz1WXWzboMs6znWJZ+Am1Q/XPaW3o1B9EnUe3ycVked10d0b8rNfiMcCkHclpHv69TZY1KJ6nxY6YGtWiboUpfmZjE/TE0130B69HYozBnAatZ7ADaLE3yI1hqg+jbNbFjQSdT/g13HXho7QtmXs9lHPaW9/FTUusO+AtJVo7vXKwmLRF3De5Mzrc8bwFY4r6H95Q2dfUzhGRdLfaz0/Xt1yXuD9qlZiVKXF98BzEOjjEMa2Ubbv74x/uNbex9tJ8qrSLDqGB8udr0OFvu/tLMRx3MuvJ8zz2yWfW6QtTFvm7ULhfZZz/XneqColirjOYGOcccQbYwrrJzDudXZR30gV1bBejrcR0dfFH4sH46qaqM/N5zNf9iLtq88J1q9d7/jYdR11TXRaJeP0T1cLJOsjU5vyRBdmkY4Ri6NlQU3eS6Bmt6nFdkMrQwxXOY6pGQDNv9GvXFR4flaxlHrTjts1IfBaDKoHJt/YwYfaI0U11UFPTNf+wQiDoc5eHJeWBwxJVWDgBQPKsAw64gReLlICyxaMWsT4XgibQkNj3yv8vlFgIKnyDdRY6Hqqj0bD6ouFSFYJSm8G53kZ1YO8Et4K3S/gCWgKehar5tdQL45FehK71KBXR632wKMeXjbItujBIEd5j0uQ8azLpGjB4Q/eUSQ9z+vjwTZU17Y3Up8SNYFpSKqGqoYGrPrsooEhCgzqhsI0S6dlbh2N7u0qbD8Wk3GeqBwNj9SxZ9fFbZMCbyWEZbUz2WFgjG3PTsJQjBrv/GucMSoSiPmGTIFRZOGqPXzwKhcV3QV57qW0FbIMUvyZ8ik6hnv3RVjaS2upGond8qSUgH+Aj23sxliFSIO13W6LnFLOLYKq13Svl6fwa5XAvQWeWhORUIKnYHK1jNJqnOgIcxIEgF0wfakUG2Ff5xJ3zMXYBi+fQZsY1b5On9mspvm2N3tOPqKR92ZHPRtxaZVOMS0wbn1kElN+eDEwcMfTteGO/OCGzq//9FCG2MSrAzMAr7PZBmfbWhjuUmmh+lrVnGqGsoU7ExowJHSxqJ7q9J8+uWEnROSxba3uNCatmEW6owdCcswDshWKiwiFeAM0sXfIFXfbsmrw9w1NoXAKvW8kozRcesUW0jlAg9U1NE9vxsFhr37bg6MGyk71EFqexdHubFGxA6FH8/NhUBhkKrhOD8JquGKh7LT9+NZlAiA4lAwsOmkpdp7lIYYRsg348vUITec9RwaIIJd9B6xeHpNmyai0sEax0LCpgdzyRAEYryqrHbns/lrGQgJtAm+d5T2OFsrRAjMW26vJY5T+OxZ43j2jiLqM9kgUgfuA5ZlEuhBtISR5pgLEjeH6vltsr2XgOQF50cITLnc7MBaUcm4RrDImv9abXPneJR5zi02mjPDU40liG+FcFyDumMGLCHjPIdbMGgHk2sRCLxjj9hnus2YCo/rE2vwkNu/Njng2YtMKEvCgRdjEYlpg3PrIJKZ80RXhAQrHdk/Geau8hs8zfmuA7DUx3IBu6AKCQf/pA6+A/jOKrg0PBAZ8G4Qhw4FbmrR3BQYoxpuhBnwWeCy+LBer9t7wuiI3ZKSomlOKTzCpq3t8KRAzGMBK6lcK1a4darbmhccwKIUZeQ8jlll82YPCuNZlcez1YnEUPc/0DfXpTVsDnRI7mA2HrVvkmblDoJ9GpVkiHAJhD3ZIiDqkjnFfnsCYcSI9zGvZwih8ruzQthsCCoK1h6ULIRhKna+d9hdbiuGJfeORcMV+YkqY4Jb0TBV71tz7ljCpqhhh43YEEBhGgBb14nK460bVL631v0lsRNh1hrhjAcyaLqznTAU9+epu8AB5fXEHfzEldHzS4et8n7UFZ35iZX/RI/LZiEvLIrBmMzI6kVQLnLyUJ7oKXLVxoJLxrQrdGBxmSoqjqMNmGkVxhVwcwfuxV6DogAdXsf7TIeBBcMCalUHM7DGTiA2zaNgoGaEGvFkOBhH27lghnFBRGUk+nUpTMFgUhL6SgRk4vpywnNfFFfeO8aL/gFAer7pMghfWKB5aSHqeB3uB2SBCxKt6bdBePfXx17YYox8wtp4nOGyNYj7N0oDg4vBPxDeu3Do2BAbtrOrrEV6+sOfKbycWdHFexKAQCg29BYDgsr+E432xoTRwT1WX5fYjRxyFeSsNiZ+pJGO4K8ow/o4M0z69OeWAR7QWbVDk2YI4Uv1iS2j4OcZGxF0Xm2YUqt9sRTjb/kKTvchef8KeM3zj0TmPvYMQXPjmrNkf8JpGPBtRaZXMWLTAyUOZni7PU9O80lncpjrWXe7skYWS5bGCW1f/GY/nDrbXPmGBdDHPUxg8w7Fix5yOdi3nF1PqMvn3s1253kzX64Sq41gzVnbpx6yNiPaSoHwpyqiZRviMK3gf5AFhLxvP0LTSCjWzDyy4196fjLveTD1wYUbGW7SsjLQzE1++vsTYfQmDspd3+1s5nliInX1GoT1VGWvtQwC33LzmR/+tGa+6LEpoWMPuX5pi56ln7XbrfK8fou7NwJn/+GtbMDhzKE579YAdPohMswgwKKZ+VL3AyxY9KHueqNB28lHlbG+mwRgvX8FzxWGPFLW2hwu6QuxwCtaPGW+pAmXwv/2KSZUVfg/pO2G0rLkzODbGjXvsQbLCo/hii7kHiyOrvXhcCh8FS3umiozh+r4rrPEc42ayuh0LcW0xVjC5qqP0+nTM5Ax9z1sLWVjOIjYi8rq4Y0VQz8AWfzmMthnOOF0A2i7QD/K4jgR4/Aqxno2YtEqmbC3gAvFm+q2qW2vsjPpyxGSi7PCit94IXzc3rkL1UQXf5bpNTacx56TxWCXD+xmC/Iw93VumMnZCF7wQMWR2wKFC/35YPBgxK4FA0WnxzyxEuFJ5EIxx4cNDM2q+Ml+AesAPtPr3gVsX38AMuKXZ0FQpIVoo+hBKC4Rr8En3RhhDb/2JXdf4pHut0JBVZnzCOjavpUnqqVL94ib+6rRJ0/MmlDeDUkKjU/WMqJ8IUEJjeFE+797PPzhtO251GQ8GuSRrxIqepwx1jV938f0wiDd79usdP2tgris7zTw8qDt9JfDNIxYtYcsGMJCa8+P7Qvhz5Xkrq5RYiRZ03gBt8pUPwXr9x/9yjGpbCFUPrKGyxrn2GhpM4Onq2tBLNfbYyD8foZ8nLXz9by8aY67PX0EdljdN3T/wnKSpN2JNV6nPVPwYjjHB+0kEc6ys37wqmbi2KA1eg2a+vaj3oe/UNdTF9BGI7GAIjz9a6ETbiLjr4tMshpkUY8x1bWL4t/rcPqM+eplAMP9qjPctatSzEZ1WyYxBC5xMjPHHUSsMZtRqUNhSoiE4kZhQS3liYiqBhxbrFUpxnwtCeXxwnithXJmCNkSYWkzcj6NWHLhoK+HeHl94vdHisNnIyQW+LZdobZogjAMflOdKGF/4N/w6RXAJJ45J7enCbDYQz8eCvojFuYIgCIIQSvud3jf1xIYIE0wxT9fUCi8KgiAIgiBMUk6i8KIgCIIgCMLURUSXIAiCIAhCBRDRJQiCIAiCUAFEdAmCIAiCIFQAEV2CIAiCIAgVQESXIAiCIAhCBRDRJQiCIAiCUAFEdAmCIAiCIFSACRJd9lvABcGjZc33xvbCVEEoA+53E9LnTtA4h19XNy9LxrsEZaz1+EDXhdjcqcIYf5EeDZ2hlN7CO8O9N+ljfysNb678y48xwK6eT9RTcG+8kHkVNVd7W6Pd4W/Mt189FHWOd48qvaUY6aGNUS9QxUCwspH6kJ+U9yqK3O7wF/V66Q7qOuQ9gTyb+iWVx9A3/mMwXjSczwvfu5n8nMblU+GWyy8/0k33hrw+A+2cpl6dJ7yZPvoVG+PbJ6Lb2YPbsdYqr1sX+nUgOG8i6tLrR+Z5AO6zoilIJ+l5bnvZ97Lx0qsL9GX7HqOBOiyepr425nUqgdd3Wfl2+5fBfx7Mq1qYqPJozHP1q0FqPt9qJx/kc6LHoCL3CJTHeZ7svlUqkc9jOdh9ARSp9ylE5LNdDOdZd8dru38HbETcdUXSzOO2hyLRq4sq0d8nkED9BMckJmxs4H006frrxP0iPQqsOgepztPWpj+bhym95kT5MNDpdtAK6lNN4uKJl5rOfF7DHkQYBRYOfE6WBuevorva9UEHPGx+uWMGT37B6m6rA42MUp3qYIW1tIyWBAySl+fGvdZ9dg9TvZrJbOvNUVVTS0Eay9NK0OmXuaIsO1ns6Wvx6ayhJaHlwb120OqmPtpozlWfjjkZWq7PKMa2tZuop7a1yExrkAbGcUAYHSFqzugZv42q31b7nZ38QAfrInugnutv3OsS91L9MH2gRw0dNttpnbmWP6q+VP7NPfIkPa+FFlKHf162P0UZ4/2waFnT6gg4tLX13O5WomXlnbqd49PkelAie7g7WLIAqvxpZej8NIaaabVOo2vDzf5+/uxWT6oSZbtgfFBvi+vUYOsd29hdF1oeg/9cre+lXHUjLXT7XXtaCcMT+AJ23yCY8m5SI1OwJU44k24Mnxwsz9RQh18fwRerx9mIuOvijhUCUaHPxfNfm4m0QycHakxqx/Osy4wxqd2ykeinmKT4daJF1tY7eJxonWL9tUzRpQSOHiADal0ZhnVhswptiDi0pD5+B+L9asDnh987dr9TgZhV5K+DsDIGwsUzVjdtGNDbFu0ZFi/hMwuDMjhNRD1ZM6PYTruUcUmlCwf+eXOqaHB/SDldVPlaG3LUa993qE8NvoVGAsaxrrvHEYyj1PeUdZ+t93hGZGuIobHvpf5ewR4zZ7agOmlYHbSsuZGah9RA4ojHbWtLmUF00Z690SLofp69KSNutzHvz7ev3fZo9/vX3MZCOjI0tFcJ7IZ0QX9gg6zqMiANRvpoj1UX2zboso5zXeIZuEn1w3VP6e0oVJ9Encf3SUXkeV1094b87BfisQDkXQnpnn69DRa1qN6nhQ7YmlWiLkVpfibj0/RE0x20R2+H4owBnEatJ3CDqIF2kRpDVJ/G2S0LGom6H/DruGtDR2jbMnb7qOe0t7+KGhfYd0DaSjT3emVhsegLOG9y5vU5Y/gKxxX0v7yhs68pHKMi6e+1nh+vbjkvmLFXKzGq0uJ74DkI9HEIY9so2/d3xj9ca+/j7SR5VWkWHcOD5c7XoULf93YW4jju5dcT5vntks8t0hamLfN2ofA+y7n+PG9UlRJFXGewMc444o0xhfUTGPc6u6hvpIpqWC/H24jo6+KPxYNxVU3U5+bzmS97kfbV5wTr1653fOy6jromOq2S4Paxrme7j/unqKbaspM8JtfQPN7As6wmLxGOja6n+ojmJ3cOTAbKE12YRTpGLI6WBTV5L4Ga3aYW2w2tDDFc5TimZgA0/0a/UdA58rOKpdSbdtyuCYHXYlA1Xn4wsu9vQMMHPTFd+wcjDIY6e3FcWh4wJFWBgRcMKMOilHxAnMDLRUpg2YJRixjfC2FTaGjse4XfNwoMJFW+gRoLeABGw+qLhUhWCUpvBud5GdWDvNKa3cAT0BT0LFbNr6FeHIv0JHapQc+Z6agHmw2yLXowyFHe4xJkPOsyKVpw+IN3FEnP8/p4sA3Vte2N1KdETWAakqqhqqEBqz67aGCIAoO6oTDN0mmZW0eje7sK24/FZJwnKkfDI3Xs2XVx26TAWwlhaQ/iPjDGtmfHEdJRqPHOv8YZoyKB4WjIFBhFFq7aw4eZe1HRXZDnXkpbIcsgxZ8pn6JjuHdfhKW9tJaqkdgtT0oJ+Af42MZujFWINFjbtreipHOLoOo13evlKfxaJXBvgafWRCSU4CmYXC2jtBonOsKcBAFsQVCKjXCERIC4Yy7GNnj5DNrEqPZ1+sxmNc23vdlz8hGNvDc76tmIS6tElB3YgvZi26fSxcRoN8QonnUz8VNw3xymffibJ4nDVB8lNFnAho8Tk5Xyw4uBgTuerg135Ac3dH79p4cyxCZeHZgBeJ3NNjjb1sJwl0oL1deqbq5mKFt0RwsNXSyqpzr9p09u2AkReWxbazqmTitmke7ogZAc84BsheIiQiHeAE3sHXLF3basGvx9Q1MonELvG8koDZdesYV0DtCgP0OJh8Ne/bYHRw2UnUqQW57F0e5sUbHjznRgkKngOj0Iq+GKH1yn7ce3LhMAwaFkYNFJS7HzLA8xjJBtwJevR2g67zkyQAS57Dtg9fKYNEtGpYU1ioWGTQ+4Vh3DeFXZM1aU3V/LWEigTeCts7zH0UI5WmDGYns1eYzSf8cCz7tnFFGX0R6JInAfsDyTSBeiLYQkz1SAuDFc33eL7bUMPCcgL1p4wuVuB8aCUs4tglXG5Nd6kyvfu8RjbrHJlCc46sx4kthGONcFiDtm8CIC3nOINbNGALk2sdALxrh9JiBMVJ9Ym5/E5r3ZEc9GbFpBAh60CJvYteEBbxnKGpWu78HH+LyJhhfpa+31jpgkVjdTjRbZXkjXnvQg30m9hpOD8kVXhAcoHNs9Geet8ho+z/itAbLXxPCD6oYuIBj0nz5ocP1nFNyJrAHfBmHIcOCWJu1dgQGK8WaoAZ87G4svyzWLzq8eB15X5IaMFFVzSumFJ6bTFogZDGAl9SuFatcONVvzZkkYlMKMvIcRyyy+7EFhXOuyOPZ6sTiKnmf6hvr0pq2BTokdzIbD1i3yzNwh0E+j0iwRDoGwB9sKqxhC6hj35QmMGSfSw7yWLYzC58oObbshoCBYe1i6EIKh1PnaaX+xpRie2DceCVfsJ6aECW5Jz1SxZ829bwmTqooRNm5HAIFhBGhRLy6Hwm5U/dJa/5vERoRdZ4g7FsCs6cJ6zpSzZqmKvYReX9zBX0wJHZ90+DrfZ23BmZ9Y2V/0iHw24tKyCKzZjIlOcKRHiUff2WLVC1+rxoUVtq0z6z6ZsOUEU4vyRFeBqzYOCC58q0JXKIeZkuIo6rCZRlFcIRdH8H7sFSg64MFVrP90CHgQHLBmZRAze8wkYsMsGjZKRqgBb5aDQYS9O1YIJ1RURpJPp9IUDBYFoa9kYAaOLycs53Vxxb1jvOg/IJTHqy6T4IU1iocWkp7nwV5gNogQ8apeG7RXT338tS3G6AeMrecJDlujmE+zNCC4OPwT8Y0rt44NgUE7q/p6hJcv7Lny24kFXZwXMSiEQkNvASC47C/heF9sKA3cU9Vluf3IEUdh3kpD4mcqyRjuijKMvybsMxWBR7QWbVDk2YIIUP1iS2j4OcZGxF0Xm2YUqt9sRTjbXrNkL7LXn7DnDN94dM5jrxIEl70oPeA1jXg2otIqC8/JkOvPR5s8z7RlA3kirYVVRLRpKlOmp8vz1DSvdBbVqY51lzt7ZKFkeazg1tV/xuMpWnvtExZIF/M8hcEzHGsdGaejXcv5xZS6TP79bFeuN9P1OqESkdaMlV36MWsjor0kKF+KMmqmET7jCt4HeUDYy8YzNK20Qs3sAwvutfcn4643Uw9cmJHxFi0rI+3MxJevLzF2X8Kg7OXd/laOJxZiZ59RaE9Vxlr7EMAtNwyzI5THqy6LEhrWsPuXpth56lm73Trf64eoezNw5j/+2hYMzhyK0149YIcPItMsAgyKqR9VL/CyRQ/KnicqtJ18VDnxbaYYL1/Bc8VhjxS1tocLukLscIq7pkSVwf/2KyZVVvg9pO+E0bLmzuDYGDfusQfJCo/iiy3mHiyOrPbicSl8FCztmSoyhuv7rrDGc4ybyep2LMS1xVjB5KqO0uvTMZMz9D1vLWRhOYvYiMjr4o4VQT0DW/zlMNpmOON0Abx8Jfwbj64jAR6/QqxnIyatcvC+tNVB69bC5nhLbPwJkz4H9ZpWbc4TQT22+/1Q9c/WBvsLZpg0mucTDh7Tn1WdW2Nq1JcmTgTT9L8lg1lpl3ogdsLVuVLv5N/kQWVYDYlOs+B77J7MYLsfy6mTAY9EvZpl8teaFbnd3myxZOAlmmvnQSn3kNkBQoULA/dbGj4rgUDR59i/Q+SCzrSi3Zsthh2Hh6ZVdYpAmMVHPeAHECPX91EEfhMGoEMq4wSj6Yo+hNL2rbHKDLjc+u8AWH+S4xm9fT/+LRn9d6DMCi8vekPDMxb1QIWVtQDVL24iZazRfxZ7u6J/u6YYSmh0qvyle8PbSwmNYYSH9H1U7gt/B2bc6jIeDHKjB7J6K5qi5ylDXWPVXVw/DILZc4tV75g56+vKTjMPD+pOXwnUN4uWQeooaCcMmPmlB3F9Ify5gkFVAzqMYKSgw0BshQfRhvp54v6DL8eg7Go/Fhh7Iw3WUKXz49yIGr8SeLq6NvTSEtVf/LGR61mHWiF8F63i/rSEywlj3kqr9T2wlrFnpJWv4vtvrg+2F76MFDYMlvhMxY/hXWpMINUmGBNW8aGC8WdC0M9yaFuUBo+vK70xzdQ99x38/Es2qhwQ2VWUsusE8PO+PcZGxF1HsWkWA5PiJep+96/J0U2OTQwdywr6jMI8y27+lT32iHo2VD+ISktvJkb1Ne93KL0ye8+VmqyptrkJv2Fpja/5fotJZMrqh055I8eTycsYfxy1wmBGrUTKlnIa/ARhQi3liYmpBB5axOVLcZ8LQnl8cJ4rYVyZgjZEiAaL9/Et2ImfDCRn4n4cteLARVsJ9/b4wuuNYn8I7+QA35ZLtDZNEMaBD8pzJYwv/Bt+MWFrYQqhPWdRX5yarExqTxdms4F4fkJ3rCAIgiD4IIyKb+qJDREmmGKerqkVXhQEQRAEQZiknEThRUEQBEEQhKmLiC5BEARBEIQKIKJLEARBEAShAojoEgRBEARBqAAiugRBEARBECqAiC5BEARBEIQKIKJLEARBEAShAojoEgRBEARBqAATJLrst30LwtjB2wl2Fnu7fgR4P9dkecO8IAiC8MFljL9ID3GVoZTe4jfg89vcsb+Vhgvefj7xwMCunk8hb14PvkU96o359quHYt+qb14rwZhyJyfwiqOCV1Mky2uAovnx2qouSVqJKJ5Hry3wVvnS6ma8mYwvRZ0ovvKVG+jVV1+ln/+8Q+8h+uIXv8j/Pvzww/yvC64ZGTkceXyyk0qlKJPJ0JNP/oIOHhyiz33uc/STn/yEcrmcPmP8+fSnW+nKK6/kv48fP06PPfYYdXc/w9vlMmfOHLruuuto5kzvoXrrrbfo+99/kP9GGcdSLvSB6uoZfnoTBfL5hS98nk477TR677336Ec/+nEgv8hHXV0dt9VVV32qoDxxfbVYP50//wpqbm7mex44cEDvDafYMzFVCOuHM2fOpKamj9NDDz3k14Npf4wNUcfG2jdOhv47HkzcL9LDyCsjTruXUlub/mwepvQJ8yhAVOxQxrVPSQ4XTyDUdObzGmaAYZwzpAQQn5Olwfmr6K52fdAGZV80TBtNuUsVFer6TG2Pvn4T9dRmrPsky2uABPlpWdNqieOxkiSPy2jJ/Cr9tzCZwUA2lY0PBvFNmzaNWfQkBcYfhmvLlgfom9/cQA8+uJXOOutsfbQ8IBhuuKGd9u79DaeJT1/fb3k/QBmPHj1C8+aV9xSjfSshuCB+9+zZw/n/zne+GzCwOH7uuefw3wMDr5dcnmL9tL//Vf63oeE8/vdkJ6ofYsKFur366qv5PPShs846Swmyx2OPjYWTof9WijJFlxI4i+uoZ/NSWrdV7wKd99C6MIGw6Da6XwminfrjCwzefyctZwHnHXPDQBxW8q+DsFLn62NBttM6Nv4DetuiPUONezcF81pACy1sIurJGo/TdtrVPUqptBvSUoJjEVH2lmJvqvdEYLCsXsi1ZW4dje7t0td30Z69o1Q3V5c7UV5tEuRH3XtFUx/19OvtKNAOVggPInTnfbepO+S3uX0S5HH5eiXIu3toVG+HA/Fmh6GdOuNtr73RD0zf8P5epq41fcPpE3Z/U/mfp3cb7D5lX4v9QfFr90c7r14+veuLhdHtc3VfN3Uc2//zZTcE8yecCGBEpk2bFvAU4N9du3bx3+VyySWX0LPPPhvwUD7xxBMBIfnCCy/Q2WePTdxNJFdccYWa4b8RKX7N8WPH3uft8S4P2uGVV15Romv8ppeTlWL9EHULMQWhi7714ou9vgCOO1YuJ0P/rRTT9L+l0Z6m1EgfbUwYOmxZUEN9SqBxuA8GZrEyJluNN0bNjtLwLt3hGaGVNyoj1sXn5j1PnhCC0clQjnp5KznL0ykaPNCiDNwq8nwvYeG3FNVUD1KvVaau/YO0uqmeRYcvaBa1UCMNE8Fwx4YhlQjcnaadqkwtW++heZlmJUI2eXWQUumqdFpUql3q/wubqmiw07s+WV4tiuZHiYX2RurbejMNZHaoc2PYqh6+nWk29LjfvDkqLaph0eLlk1Q6XbQ8syo+j6qNud2eqqf75+t9oUBw3kgrFqgaRvkX1RONGAGqttHP+ntpndoKiCpF1fxWItWn2lR9cr9QQmYbh2iVWFmpymv6G/cplctuvszrU+xl1CIV/VEJs31KtG7rzdFOFtlIR/UHSMY5GMCRN9RzH23phPjSHt6iwtg9F0JKbasy5Ynu/xMB3PQXXHA+/23c/3ZIEn8jRIdzECKyQwT2ta+//jrNmFEdGi6wQx7vvDPChgGEhR5M2GFgYIAuuuhCDkk98sgjtHDhIj7XXA+D4ubNHJsxY4YfunAJyws8IQhDAVzb0dHBoS6Tt6efflqd+05oqAoG/e23hwP7xgrqYPr002nfvnDDZ9rn+edf4DzB4BpjhjaZNu0UOuOMWs7/yy+/ovI35JcZZUG74jwAj4F7jV3Hdn0NDQ3xvz09PWxUTR/B/VFf2WyW2x7p4Z6nnz6d3n//ffrGN9bwdXbfwTVnnFFDL730a25nAM+UWx6AvN16662cNztEmaSfog7h/UGdmn7phr1QJzZRoeJy6skVnMjnmWeeyX+jbZ555hk/FG7uYcJmqIdrrrmGTjnllNDQrE2xfoi0cc5nPnMtb6PvGOKOlUOl+29U208Vyg8vDg14RisBXRvuyBsRGHb9p4cy2GY9kzK8fSNVVMMTFYSnbM+TEgJr1UOu/05OC9XXqo6hBMMWHQrb2F3HRjqAMvh1+k+f3HChpyZVQ1XVzVTT66XlhSFhKPVxGyUss0PNtGTNbdSqDP0WI4TU/rbOGlrN3g0vTOd5jRLm1aZIfpavX0WNex8IMeK2B8Z4UHI0PJKiNP+9jNK1fdQ3ZLYhQvpojxIdsXmEcFhM+Ta1YM+Zuaf2oEHYVjVBgKrjC5Qk3NtHZLbn1lGutzAdMNqdLxPEEtV64pjDqP0d+fJ23kNbuk0r6j6lRLDfd7dmqUfJKWXjvfZu8EQnBF+dysug2Vb1TOyd7KIBNcb6nkmfkPpsz1CzSn2XL84gxN0eHNX/xx8MjlhP84Mf/JDd/1EDFQYzDPg4D8IKgySMDEJD5tojR46qgfbD+oo8OPfii9P+effeey/vh9EbHBz0Qw/ADKRIZ/bsWt7/2mu/YwH19NO/5LAJuPTSS/hfYPKGc+0wSRjI83nnneffE/c358+aNYu9IgiB1dbWclrmPAzyUcBAwigkAcYBAsT+QExABNig7PD+HD58WO8JBwY2zJNzzjnncH2hztFGpswwWBAg7v2AucauY7TdZZddRo8++ihfj3uhngDWUsEwAnN/hIqQNsTU8eN/4L6Cc5AmPjDEaAOcA2MLUfLuu0f5WlCsPMgD+sM114S3cVg/hUhBO9thrExmcaDvue2LbXMM3hoITEOp9WRjxAbOwfWoJ7Q1PEu4B9LBvmx2N/+NOkKIEOc/99xzkeUGSfohBB7aAPXuirO4Y4bJ3H/D2n6qUL7o0kYuGbZBshfeu3gGLc8gDYzTjD+njK8xtF1P9eWNq6FzQN3NAYJG/xlgJGhIe/urqBHemhC2ZXuobj48Tfn7c3gr3atF0lLqTattS1gVzatLVH60xyl8TZgXjjV58ESfFepk0dFFdytBY7ZTltAOz6P2qm0O98x1bbjZv1+bCYdChFfDmwZP2iD1qrz2sXfN86wNJ1HZjjgePRB3kdun0Oe00GHRU0f1SoAtT9dR31P3qLo02yka3O+VeNvaTdTXtIr7cz4cGFafihImJ15e9J8TgBkUIWrCBjIDBnwYL3wOHx5RM9CZbExhAM3MG4P20aPv8t82GFARQrJn6PAmQdQ8/nh+3QhCDTA4s2bN5HTMmhIYkoMHD/JMGIM0rrMxeQN2GmEgz/AyGIOBgRrGChw6dMif4cOrNXv2bF8EAtz/7//+HwoMki0+igFRC+NhfyBC3TQxa5827VSupzCQjhEK8CagDHb75XL9nF+0Lz6oF4BymVCei7kGeYEgQZnQzsPDw74XAvWDegL9/Tmuawh33L+/v5+vQZ6PHTvGnk+ANT1I004XogfG1qRrE1ceYMQB7usS1k8B8mrCWMYLg3SiwL0hJtBH4GHB+SY/pdaTAdcjHaSHdFesuJHFPa41bQmvlhE92I/jOC8sHy5J+iFEG+rlyis/UZBO3DHDZO6/UW0/FShPdLGh1N6BokBw4ZuMxiCV4q3yDJ5PmDeqKKUYsuD94GkpMJph3q8YlmeaabB/kJrbzdqoZZRuGA168JQw80RLGUY3Mj9NdPsiNVA1ZFgc4INvS1bNV2IhxnMGAQVP0/K5pESHKrlK39s2XqeYPMKzU11FzSu1wF7ZrERrijKx654gEuFNS1HNUK8Sa0hfb7NnTZ9WAlUcEswzb44tnZ0+pVqlvnZUizuITlKCdRnV63vvU+MLb9fmqNcXtkqM3oK+7Imv2HVWzuSE+9QEEjcYY7DEoIlZJRa9YiabFAyUSTw8Sc+rFAhX2EYjzLuHAf9b3/o2/w2DB+9MFCgbvIVRhqocjBhOssjYCE7b+zdeoN+g/4RhFqkjj0eOHGHDiLZuamria377298WCGRQUzOLBa0RH9deey2Li2XLlrIgmojyIK/Tp09n70cxLwzaEV5YswAc3qsoQ2+IqycbpGO8YeZjxEfY9QiT2eeGCRxDsX6IPgzRBi8a2sWu37hj5TBZ+u9UoUxPFxaZkzKujjFddBvd5c/8NSyULO8CPCb6z3g8j01zJi8QIGBCPU9FQPgphXVkepvT6YeBV3+vN94KXSb/fnZ4E2tzdMgI3hBqphWmnKrMrUpEsUBxgaeptod2rUUIq5mWsHEu9IwhrFY1Mkz71N9xeQ0lMj9btDDIf7L93nqv4M9TOMDjpwR1axN5bcbpY3vQFx2ReUTY1Lpf22YspMd6r/ifDtl3YJTqFrVSnfZQIX3e9r9skBzP69aa75dcH/pv06d8AazgEGBe3HnhzlZVYk9seyJUbbMgdPEEaGGoUcOTE9PuoJRvdNqhXgX6kl+OaDAYw0VvPAMwPNjG7N8AkfHww//MA2+YByEMhElsVz8WRYeFF3EeQi92uhiUcS8T2gMIr2BNyqFD7+g9yUDowVAsDbcuioH1Ighp4B6ot6997asFRs14x+C9MSD9L3/5er2VJ2l4BoYVRv/yyy8PhEmWLFnC20jHFoIQPBOxIBl9xCywBjCMJmyGPKKuUTfw+MB4wsPV2Njo9y27jyANpPWrX/2KBa0REhAhWAO1ffsO3wC75bHFBPoZhIE5NwnIqwljQYDBC2P3PRt4Z7AgHV4VgGtwfhxx9WT6DUD92KFKA9oSghVrxxBSRFlx/5qamkD7xxHXD5He+eefz5Mr1AXqFyF/HI875jLV+q/n4DGaxLLZirydP/GUt5BegVBRFxYhw6uxUu8c6aGNt8BUWQ2INTULvsfrlzLYVh026eODME79fQjj8JWU252lXEOa/y4JJQY2zrXzkA0VHl0bHqCFgfvpxdgB4OVIqcbFeavU9mjIb4IpeG0TvuF5h2e8t7bQ/RCpOXWuXy5cr+B6M+G2ZHnNkzA/iYEwyah7d2iR4S12b27yRCFTch7jgbBZgRCsEa5KrAwuVinrcF5JqP52U8rql6pus92jZB75bWuX8pcOkPfV2GHXPYBQwr07dXkgOtubqdEPWeJhzv8+GZc9NHwLttO6zfWq3VVeeGxUAnS3EqyJurBq186Muk5fq+6ThUfQOxgJZtKYiV9//Zf0Hm8xKoQWBlbzG0pmP4xZ3NoRA9KFwUX4AyCcFBZedO9vFh9jkTvujYEbYFYPkRM22BcjaRpRdWEMrAEGwSzcNQuY4SEJAwYGHghjkIC5xiXMqxYF8op8IeQEbxCAlw7t5hpuewH6eIJ7QXSY+oI4ssNmEBtYQG8WTJsvUxgvmKlv00dMvyuGWx54iOCJxYJy039KBXmEAISocvse8mVA/0c4HHWOD8pczNNVrJ4M8CTBi2b3k5deeokuuugi/lkN07YQTugrCJGZfAC0P+r8wgsvZJFqE9cPkR4En6l7cx/znEcdc4XtVOu/U4Ux/jhqhYGQUcp1S9zPIwjCJAZfJjgZfqgVAyYGTgzyMACVAAYG3hQM8B90IBQhcCA6JwqI2bH8oGUpTER5sEYP3s6J7i8TWU/GQ3Sy9flK9N8TxcT9OGrFwSLtZv0Nsg8egW/+mY/1G1rCFEBNGlbM12vlpjiYvY73TycIyYERnmiDVU5or1wmojxIrxJiZSLrCWE41zN7MlCJ/jtZmdSeLv79JXsdyxjDWIJQWbDGIPhtXYSsk//w7eQBni3zG0LgRPw2jni6JhY3/Gz/LpWQR+pJiKOYp2tqhRcFQRAEQRAmKSdReFEQBEEQBGHqIqJLEARBEAShAojoEgRBEARBqAAiugRBEARBECqAiC5BEARBEIQKIKJLEARBEAShAojoEgRBEARBqAAiugRBEARBECqAiC5h8oB3a/pviRcEQRCEk4sx/iJ94WtOCl/V456To2zbHbRNb+GdgqvnV+ktotHuTbEvA/ZeDRRMg431ymYyqcS/akXnJ/aVQnaeR6ln8810dydvJCbwCqOCe7XQ7fetouZqb6tYmUGgnkZ6aKP70m9dB4Pj9pqZ4nn08jQYbIspRbBvBssYdyycsNfU4KW7IOo9Y7hmZOTwlH0PGV6Jkslk6Mknf0EHDw5V5AXJqLMzzzyT/x6vV7DMmTOHrrvuOpo50+vw9muOxvpCY/SB6uoZE/7aJPtVTWH1gnzU1dVxW1111acKyhPXV4v10xPxAvSJAi9jvvLKK/nv48eP02OPPab6xUxqavp4oE5Nu+KZjzo21jY/2fulKd/g4CA988wzoeWJe/3XZBw/J+4X6dkrkSFSRr6tzXw2UQ/V51/C3H4n7XTP2TxM6TU4A0Z9B61u6qON/vVLqWNOhpZ7Vwfh++2g9IEeJYOCLM/UUIeffg/VLQ73lngvjU7TcLebgg3yZeV59yA1r7wzPE9RqHJnapUw4jypOqnN0F3t+pgWMzWdOn31SSS45nT457e5gkuxPJMXnWMnSR6X0RJLLE9J2utpeLMuo+o3NP9Gv9+0rFH9xBxry9Lg/FVWG44fGPCmquACGBw3bdpE3d3P6D0TB4zM17/+NzzIfvObG/jz9NO/VAavSZ9RHjAKN9zQTnv3/sZPt6/vt7wfoIx4ofG8eYHpZWLQvpUwbBBSDz/8z5z/e++9NyB+UHfnnnsO/z0w8HrJ5SnWT/v7X+V/GxrO43+nKjDiEFBbtjzA9fjgg1vprLPOZoOPOrv66qv5PNT3WWedpQTZ47HHxsIHoV9eeuklvqAspzxTcfwsU3Qto7tWNlKfMkpBr0oX3b3WCAJ1zuI66nHP6byH1ikD3rLmRmoeyhYIiG1rI7wm6rqblAFc95Tetghc09lFfSNVVBPSbl0bblYG9A7ao7dDWdRCjUo67jJ53pqlnpEUpQsMLjwhO/KG2AqNtcyto9G9XbpcXbRn7yjVzdVStD1DjXs3leCNUuIGwjTuRd8QeSrPPSN6OwJ434LibwfdzwLYbGuxmiCPy9crYdpdKIAL4Hq5k25nwbtDfXQdOdv2uZ7ARf2qY+2e2OZz1y/jIwaUx0sD5cL53rWJy7n1nrwHk/uN/lvRteEOy7u5nXr7Kd+GwgnhiiuuoNde+11gkIXYe+KJJ/RWeVxyySX07LPPBmbSSNMWki+88AKdffbZemvygTK8+GJvwENgg7p744036Nix93l7vMsDQ/rKK68o0VWeAJgMQCBMmzYt4InBv7t27eK/UWcQUxCwbn3HHSuXk71fwst13nnn0euvv673TP7yjAfT9L+l0Z6m1IgSAnEht9hzWmhhUxXlOmOERNmkqKY6R72JRY1DqoaqhnotIdhFA0OrqJENri0Pt9O63WnaqYRCizLe8zLNygJs8gx1apBWK/HWos5X8pLLOqiMOlieTtHggRYlJFZpz5QTKnVBPQ4N00J4BXWoLxg+hbgllUYX1d+n8hDDtt4c7UxDuKDeVT1BMs3BIKnyxmKzj7ao/C/PFMkjizwlmJ+qp/vn632xpFTam5Tghdj+Hq1euYMaVV3520pYtShRbdeuRxU1K3EEj2EXizB4DFW9q7LjOs5Dm9eHOJyr8tmr/k5azgBR+5kWqq8dpb5sYQ5LAe78Cy44n/82YQLjOt+3L8eu9YGBAbroogv5nKefftofcO1rMUjNmFEdGlawQyPGlQ/CQhQmPGHu+d5779EjjzxCCxcu4nPtUADyifAh8nDaaaf5x2bMmOGHBFzC8gJPCMJQANd2dHTwTNjkDWUGGIztWTgG6DPOqKGenh69Z3xAHUyffjrXfximfZ5//gXONwyzMXpok2nTTlH5quX8v/zyK/T220N+mU374TwAseheY9exXV9DQ0P8L8oLw2XCK8ZzkM1mue2R3pEjv+dzYay+8Y01/DfyYsQprkHdvfTSr/2+Bc+UWx6AvN16662cN/QHhAtxnyT9FMfgJUKdmn6Jv7/whc9zn0F6KOeRI0c5b7i3CTu59zLhY7scBvc4wlImxI2yoE5M2CzqHmFAML799rAvuFyQNs75zGeu5W30CUPcsXKodL9EevbzbYcxw/olPG6NjR/j/on74hw7xLps2VKeIIGofgnPILzWNlH9sqpqBnu57bHHjEvm2ZgqlB9eHBqwjKTn9fG8DlYoLnCOyygNh/enMQAvRobqurNlrzGCl8pl34EIf87WOyg71ExL1txGrbU9tMWE4NT+ts4aWs314YXpPJEE460eqCaiLRy2Wkobu+so43hwbDg/DY0qzXwYrG6xqWOvvLQ7RLTpcGzAm5QbptGGtHetEnN1e/to0GwrsUnsnSuSR6QLkRfiect7r9TnPiWk9H6Itg5dN11P9amWd7ara2geb7mMUo8StN6ZtrcJoU1lkLL5PGxbq4yQ/jtZOYHnBeP8tqvyhoRtwfL1q6h5qKPkdX02GESxnuYHP/ghu9ltQWGYPv3DNHt2LR/HwIhBDGIDAxpCQ+ZaGC2c64KB6uKL0/55cOUDs2YC+/ABZsC174lBEgYVITuEVwDc/wYMyDBaONcOp4SBPEM4mXvi/ub8WbNmsVfkO9/5LtXW1nJa5ryowRMCbdq0U9kwJAGDMQZ6+wMxgfq0Qdnh/Tl8ODj4u2CAD/PknHPOOVxfqHO0kSmz3X4u5hq7jtF2l112GT366KN8Pe6FegIwTDCgwNwfIRgjRLHuqKamRtXPNL4WeYHXBWniHBgxGMd33z3K14Ji5UE66A/XXFPYxlH9FGIG7WzCQ9iH/oR0cC76jqkPPA8Qj1gvhWPoC7je9EvswydMcMHI4hjqD+VHXuBNgThFmbEvm93Nf6PsCBHi/Oeeey60PAYINYiTOCDwIIZQn644iztmmMz90jzfuAaTOtRfVL8cHT2s8ndMibqZfC2EFfofJlVoW1z/3nvvRvZL006PPx4MwUaVp5SxZ7JR94Vm+k9fv4IWXuuN2eWLrlpr7Ra8PmygLcMHAue4hIcAy4ZFxo0sToqtkYqja/+g/ivPvDnRa5e2ZZUImt9Ifb448LwuO9O9nkhSn9602raEVc7y6rDoMIIgin7L4HMYzAt3IkQbGQbU4VgvD/qLAHxtHdUrAbY8XUd9T92jhIzZTtHg/ny9hedRiZR2hJXDPXNe+FbfM0LAjIWg+B2kgSgRlLicXXT3LTq/qg5XKPEVXLflTSbSvep4XHg3AWbwhBEKG/DA0aPv+utAzAwXYgMGF4bLzNAxuONcFwxUCCHZM3lcj0HKHtzgwseAN2vWzMA9YXAOHjzIM0wMfrjOBkbLpG2nEQbyDG+EMSwYNGHUwKFDh3xPwDvvvKMMzGzf2AIIL1eUov5ghGCMkoDrMUDbH3c9CYCIg5hDPYWBdIwQRJugDHb75XL9XF/IHz6oF4BymVCei7kGeYFI8TwSM2l4eNif3aN+UE+gvz/HdQ1jhvv39/fzNcgzDN/+/fvVv8f9e6ONDh8e4TQzmcVsxGyvgSGuPMCICNzXJqqfAuTVhIfMPqQDkC/j/YAwQx7tfCEfKKcphwuOIz/wuqBPrVhxI4t2lNO0EbxaRvRgP47jPJyP63B91PNni9soINqQ7yuv/ERBOnHHDJO5X5rn2+4/cf0S4hdiDv0Dwmpw8C0+H88orn/zzfB+WV9/DtfRz372aEG5QVh5wsaeqDqe7JQnurb2Uq66kRbCexJF7DneOqcUh4DGAQgueCqMuBgrAbHoeX5sQWKDBeyD/YPUjBAZ71lG6YbRoBdGCTNPtCBUqXcmJEwEengL2avmr/I8NTu9bxqmFtvrl1xQ70SNC5ZRPfXRHlVX+1Sf5+1aE5KNyWN7Rt2jippXau8Qf2M0RRl7XVbF8ESUz6J6tceQpJwOSmRu6bbW3rHgSlOvEmRxa9ts4gZtDC4YXDH7xOJYzHiTggGo2AwcJD2vUiCUYBsXV0gBDObf+ta3+W8YRnjIwkD9QWC4M+CxAoMEkizeNYO+7f0bL9Bv3FCLwSxSRx6PHDnCRgdtjS8Q4BqzMN5l7ty5LGiNSLn22mtZhCD0A0M5EeVBXqdPn86ejDhvTVh5ITCKeTORnvG6mI8RH2H1hzCZfW6YwDHg2YE3OsqYo29CtMGLhvq26y3uWDlMhX4JcYQyI49os5dffpkFN55RLIFAGcL65Uc/OleJs2q6/vov+RMyfMyYOJHlmQyU6enaTru6SRnfOGMbcY4SSHcpUdC1oYNyDZmQxdElflPQeF8sT1MeL3xU9Ftn7CXT98XCeWqmJeYaCA17Yb2N/pbirrX2NQiDVSkDb8m2BY1UNTJM+9TfWG+U8sODnmir6u+NDodCvKp68svAwgfCwXgXzWcTL6THeq84Tx9EXFVTKzWSF/qFF4uwPZTPQ2QeETa177kZC+mx3mucxG5ivDpuzuT7jvvtzSTlXL7GDoF6ItaIa/6iwO6YtXYhYNCGK994BmB4sI3ZvwEiA9/kwWDlehCiwIzSDglgUXRYeBHnIRRgp4uBD/ey3fEIw2DtyqFD7+g9ycCs1lAsDbcuioEwEkIfuAcMWJgohdhIpRoCwgx/29sGXI8B3f6EhXFggPHtsMsvv5zby7BkyRLeRjp2+siD8eSMJ+gjZiE2gMEx4UXkEXWNuoFnDEYJArSxsZGvM8fRJgD5RnjnySefYkFrBAfECtbkbN++wzdsbnls0YF+BqNpzk0C8mLCQxBgEFHGeKJs6BMA+cbfdp3jPrifGwI0/QFpo9ymnDY4B0IU4UqEFFEGeHUQ3rLvEYfxvsI7aECev/zl6zm9888/nydNyAfqDaF8HI875nIy9Uu0FzxX6Jf4iQQjuNGHIMhQhrB++dOf/ltACGNyho89KXPLEzb2IP08mCQbrRG0+4g8RTsiKk95C+kVCCV1QazA67FS71TA6BtDxefgZyPsc/g3ptgMKtGQU5UDT40ycBpeJK7/TgYWzldRysmH99tYyQeLPF1099YWr1z87EFUhAg6lJ2/nXmHZ9T5GtXoOSVA1m6iei7XKu9c+3e1lHDZOPd7vN6LSx37e2FAiavN9U5+ShMDASDiFqs7my8xIBTX3kyNB6y6KjmPlWebX8de38ntzipxmua/mQTl3KckGcq4Wm/nv6Cg17UtNnWuCft9NAvMuDEzxAzOACEBoYVByywoNvsxaMWtMTEgXQw6CJMAzCLDwovu/c2CUyxyx70xwAPM/iFywoxCMZKmEVUXMIQ2MBxmka5Z6Bw1u0c9YkaNsphr7AW/NmH7okBekS+EpuANAjACuJ9r4O2FvuMJ7gWhYuoL4siEcQCMH9ZAmXCe+TKF8YKhLYxBN78tlUQsueWBJwmeWPs3lUoFecQkAZ4rCBHUK9rLLKQHKC9CUahvfEzbw1OENYimn6EdbO+texzXvfTSS3TRRRfRnj17/DaDcEIfsO8BkB7q8sILL2TxaYO8wRNm6hGYfCE9CD6kD8x9zPMbdcxtg5OtX6Ifoq1xfyOyIH5NucerXwLTJmbsmaqM8cdRBWGSYELME7CWbLKBgQgDEoxBcLY3cWDgnGrfEpooIBQhKCdy4IeYNd8KTWKkxsJElAdr9CCW3P4yGfqR8RCdbH1Z+uXkAD+OOu+SQ/SLR35P+DHUM//ycrp83il08PFnqWffR8awkF4YVwLf/DOfwDcAhWgQYm62vpV4coNZbqF7XagUMNYTbQjKCe2Vy0SUB+m5ogaTBXjnjLfuRIGwletxPRmQfjnJmV1HLTenxdMlTE34d7nMa5bAJAyBjhcwVua3hkBUSG0iEU/XxOKGn+3fIprKoN+Y39Qy4SUThhMmPydrv5xI3NcAGU/XKad+iD70R0dFdAmCIAiCIIwHkaLrlCO076HfSHhREARBEARhIjny3D7qe20sP44qCIIgCIIgFOUPOqYooksQBEEQBKECiOgSBEEQBEGoACK6BEEQBEEQKoCILkEQBEEQhAogoksQBEEQBKECiOgSBEEQBEEYJ86p03+EID+OKkwe+AXqjdS3+Wa6u1PvEwRBEIQpAn4c9dymt+mXjx/1fyA18Bmb6FpGd+3MUEpvMQWvY3HPyVG27Q7aprfwzsHV86v0FtFo9ya6aUP0G/S8178E0/CMdTOZVHK7l9K6rXrDIngvJ40Adp5HqacMERB4TU1BnbTQ7fetouZqb6tYmUEg7yM9tNF9sbOug8GIspdO8Tx6eRqMqcfJTrBvBssYdyycsFfl4MW/IOodYrhmZOTwlH3HGF4Tkslk6Mknf0EHDw5V5GW49qtlxuu1JHPmzKHrrruOZs70Orz9qqWxvuQXfaC6esaEv7rJfl1UWL0gH3V1ddxWV131qYLyxPXVYv30RLyEfaLAi5avvPJK/tu8umjmzJnU1PTxQJ2adsUzH3VsrG1+svdLU77BwUF65plnQssTNq4aJuP4yS+8vugQ/eLn3guv3U/54UUYeWWUSBn5tjbz2UQ9VJ9/SXP7nbTTPWfzMKXX4AwY9R20uqmPNvrXL6WOORla7l0dhO+3g9IHepQMCtKygKjDpLE7R6nFd4aksYyWzOnw77Oxu44yoS+URr6sPO8epOaVYenFoMqdqVXCiO+l6qQ2Q3e162NazNR06vTVJ5HgsvLe5gouxfJMXnSOnSR5VPVpieUpSXs9DW/WZdzco0aHG+n2Rd6hljXp/LG2LA3OX2W14fiBAW+qCi6AwXHTpk0VeZ8ejMzXv/43PMh+85sb+PP0079UBq9Jn1EeMAo33NBOe/f+xk+3r++3vB+gjHjJ77x5gellYtC+lTBsEFIPP/zPnP977703IH5Qd+eeew7/PTDwesnlKdZP+/tf5X8bGs7jf6cqMOIQUFu2PMD1+OCDW+mss85mg486u/rqq/k81PdZZ52lBNnjscfGwgehX1566SW+oCynPJN1/Bx67ff6r0LKFF3L6C4OA7lelS66e60RBOqcxXXU457TeQ+tUwa8Zc2N1DyULRAQ29ZGeE3UdTcpA7juKb1t0bXhnvw1W3spXPNvp3WWt6nrqT4ara6heXrbZ1ELNSrpuMvkeWuWekZSlC4wuPCE7MgbYhaF32Oj3TK3jkb3dulyddGevaNUN1fLu/YMNe7dVII3SokbCNO4lzlD5Kk894zo7QjgfQuKvx10Pwtgs+3lP0kel69XwrS7UAAXwPVyJ92uhONOVV87TR052/a5nsBF/apj7Z7Y5nPXL+MjBpTHSwPlwvnetYnLufWevAezs4v6rPrr2nCH5d3cTr39lG9D4YRwxRVX0Guv/S4wyELsPfHEE3qrPC655BJ69tlnAzNppGkLyRdeeIHOPvtsvTX5QBlefFGNfZaHwAZ198Ybb9CxY+/z9niXB4b0lVdeUaKrPAEwGYBAmDZtWsATg3937drFf6POIKYgYN36jjtWLid7v4SX67zzzqPXX39d75n85UnKb/uiA4jT9L+l0Z6m1IgSAnEht9hzWmhhUxXlOmOERLngvv29tE5vRpKqoSp1XoHAw/6hXksIdtHA0CpqZINry0Ml4nanaacSCi3KeM/LNCsLsMkz1KlBWq3EW4s6X8lLLuugMupgeTpFgwdalJBYpT1TcWFOBcozNEwL4RXUob5g+BTillQaXVR/n8pDDNt6c7QzDeGCek9RDSTTHAySKm8sNvtoi8r/8kyRPLLIU4L5qXq6f77eF0tKpb2J2lQe2Wu3cgc1qrryt5WwalGi2q5djypqVuIIHsMuFmHwGKp6V2XHdZyHNq8PcThX5bNX/Z20nAGi9jMtVF87Sn3ZwhyWAtz5F1xwPv9twgTGdb5vX45d6wMDA3TRRRfyOU8//bQ/4NrXYpCaMaM6NKxgh0aMKx+EhShMeMLc87333qNHHnmEFi5cxOfaoQDkE+FD5OG0007zj82YMcMPCbiE5QWeEIShAK7t6OjgmbDJG8oMMBjbs3AM0GecUUM9PT16z/iAOpg+/XSu/zBM+zz//AucbxhmY/TQJtOmnaLyVcv5f/nlV+jtt4f8Mpv2w3kAYtG9xq5ju76Ghob4X5QXhsuEV4znIJvNctsjvSNHvFk1jNU3vrGG/0ZejDjFNai7l176td+34JlyywOQt1tvvZXzhv6AcCHuk6Sf4hi8RKhT0y/x9xe+8HnuM0gP5Txy5CjnDfc2YSf3XiZ8bJfD4B5HWMqEuFEW1IkJm0XdIwwIxrffHvYFlwvSxjmf+cy1vI0+YYg7Vg6V7pdIz36+7TBmWL+Ex62x8WPcP3FfnGOHWJctW8oTJBDVL+EZhNfaJqpfVlXNYC+3PfaYcck8G5OJY+rzR96fBZQfXhwasIyk5/XxvA5WKC5wjssoDYf3pzKw7p/uddZPhQCPCrxw2cLz4KVy2Xcgwp+z9Q7KDjXTkjW3UWttD20xITi1v62zhlZznrwwnSeSYLzVA9VEtIXDVjrM6XhwbDg/DY0qzXwYrM4Pn8Jrg1BoiGhjr5FpE+3ZyQ3TaEPau1aJubq9fTRotpXYJPbOFckj150SeSF1nPdeqU8gdJujDl037GF0t8M8jswo9ShB651pe5sQ2lQGyWq/bWuVEdJ/Jysn8LxgnN92Vd6QsC1Yvn4VNQ91jGlxPwZRrKf5wQ9+yG52W1AYpk//MM2eXcvHMTBiEIPYwICG0JC5FkYL57pgoLr44rR/Hlz5wKyZwD58gBlw7XtikIRBRcgO4RUA978BAzKMFs61wylhIM8QTuaeuL85f9asWewV+c53vku1tbWcljkvavCEQJs27VQ2DEnAYIyB3v5ATKA+bVB2eH8OHw4O/i4Y4MM8Oeeccw7XF+ocbWTKbLefi7nGrmO03WWXXUaPPvooX497oZ4ADBMMKDD3RwjGCFGsO6qpqVH1M42vRV7gdUGaOAdGDMbx3XeP8rWgWHmQDvrDNdcUtnFUP4WYQTub8BD2oT8hHZyLvmPqA88DxCPWS+EY+gKuN/0S+/AJE1wwsjiG+kP5kRd4UyBOUWbsy2Z3898oO0KEOP+5554LLY8BQg3iJA4IPIgh1KcrzuKOGSZzvzTPN67BpA71F9UvR0cPq/wdU6JuJl8LYYX+h0kV2hbXv/feu5H90rTT448HQ7BR5Sll7JnslC+6aq21W/D6sIG2DB8InONSRTXBeh0D5v7q05vOi4wQWBjAwLaFL47v2j+o/8ozb0702qVtWSWC5jdSny8OPK8Liz+dp9602raEVc7y6rDoMIIgin7L4HMYzAt3IkQbGQbU4VgvD7qsfG0d1au6WZ6uo76n7lFCxmynaHB/XnKE51GJlHaElcM9c10bbvbLHLbubKwExe8gDUSJoMTl7KK7b9H5VXW4Qomv4LotT8yne9XxYkK+CGbwhBEKG/DA0aPv+utAzAwXYgMGF4bLzNAxuONcFwxUCCHZM3lcj0HKHtzgwseAN2vWzMA9YXAOHjzIM0wMfrjOBkbLpG2nEQbyDG+EMSwYNGHUwKFDh3xPwDvvvKMMzGzf2AIIL1eUov5ghGCMkoDrMUDbH3c9CYCIg5hDPYWBdIwQRJugDHb75XL9XF/IHz6oF4BymVCei7kGeYFI8TwSM2l4eNif3aN+UE+gvz/HdQ1jhvv39/fzNcgzDN/+/fvVv8f9e6ONDh8e4TQzmcVsxGyvgSGuPMCICNzXJqqfAuTVhIfMPqQDkC/j/YAwQx7tfCEfKKcphwuOIz/wuqBPrVhxI4t2lNO0EbxaRvRgP47jPJyP63B91PNni9soINqQ7yuv/ERBOnHHDJO5X5rn2+4/cf0S4hdiDv0Dwmpw8C0+H88orn/zzfB+WV9/DtfRz372aEG5QVh5wsaeqDqe7JQnurBuqrqRFkYIGyb2HG+dU4pDQOMMvE/94YIOgmsFPVBcEATEouf5sQWJDRawD/YPUjNCZLxnGaUbRoNeGCXMPNGCUKXemZAwEejhLWSvmr/K89Ts9L5pmFpsr19yQb0TNS5YRvXUR3uUaNmn+jxv1+aol8VbTB7bM+oeVdS8UnuH+BujKcrEiNyJwxNRPovq1R5DknI6KJG5pdtae8eCK029SpDFrW2ziRu0MbhgcMXsE4tjMeNNCgagYjNwkPS8SoFQgm1cXCEFMJh/61vf5r9hGOEhCwP1B4HhzoDHCgwSSLJ41wz6tvdvvEC/cUMtBrNIHXk8cuQIGx20Nb5AgGvMwniXuXPnsqA1IuXaa69lEYLQDwzlRJQHeZ0+fTp7MuK8NWHlhcAo5s1EesbrYj5GfITVH8Jk9rlhAseAZwfe6Chjjr4J0QYvGurbrre4Y+UwFfolxBHKjDyizV5++WUW3HhGsQQCZQjrlx/96Fwlzqrp+uu/5E/I8DFj4kSWZzJQpqdrO+3qJmV844xtxDmLbqO7lCjo2tBBuYZMyOLoEr8pCO/LGisNlX6rEj1e6NILH7H3Qu1f0dSXDwHacChO3xcL56mZlhiPB4SGvbDeRn9Lcdda+xqEwaqUgbdk24JGqhoZpn3qb6w3sr9dyd86DFtbZoB4VfXke2BY+EA4WN49/mzihfRY7xX3bUiIuKqmVmokL/QLLxZheyifh8g8Imxq33MzFtJjvVelf1fLq+PmTL7d3W9vJinn8jV2CNQTsUZc8xcFdsestQsBgzZc+cYzAMODbcz+DRAZ+CYPBivXgxAFZpR2SACLosPCizgPoQA7XQx8uJftjkcYBmtXDh16R+9JBma1hmJpuHVRDISREPrAPWDAwkQpxEYq1RAQZvjb3jbgegzo9icsjAMDjG+HXX755dxehiVLlvA20rHTRx6MJ2c8QR8xC7EBDI4JLyKPqGvUDTxjMEoQoI2NjXydOY42Acg3wjtPPvkUC1ojOCBWsCZn+/YdvmFzy2OLDvQzGE1zbhKQFxMeggCDiDLGE2VDnwDIN/626xz3wf3cEKDpD0gb5TbltME5EKIIVyKkiDLAq4Pwln2POIz3Fd5BA/L85S9fz+mdf/75PGlCPlBvCOXjeNwxl5OpX6K94LlCv3zjjde5vSG40YcgyFCGsH7505/+W0AIY3KGjz0pc8sTNvYg/TyYJButYdl9BSJP0Y6IylPeQnoFQkldECvweqzUOxUw+sZQ8Tn42Qj7HP6NKTaDSjTkVOXAU6MMnIYXieu/k9FFA3PsNCJ+VwsL5KtTvM5qtd4F+H6BMaWL7t7a4pWLnz2IihDPGMrO3868wzPqfI1q9Jy699pNVM/lWuWda/+ulhIuG+d+j/PBOS74DS8XJa421zv5KU0MBICIW6zubL7EgFBcezM1HrAqoeQ8Vp5tfh177Z7bnVXiNM1/MwnKuU9JMrs/5L+goNe1LTZ1rgn7fTQLzLgxM8QMzgAhAaGFQcssKDb7MWjFrTExIF0MOgiTAMwiw8KL7v3NglMscse9McADzP4hcsKMQjGSphFVFzCENjAcZpGuWegcNbtHPWJGjbKYa+wFvzZh+6JAXpEvhKbgDQIwArifa+Dthb7jCe4FoWLqC+LIhHEAjB/WQJlwnvkyhfGCoS2MQTe/LZVELLnlgScJnlj7N5VKBXnEJAGeKwgR1CvayyykBygvQlGob3xM28NThDWIpp+hHWzvrXsc17300kt00UUX0Z49e/w2g3BCH7DvAZAe6vLCCy9k8WmDvMETZuoRmHwhPQg+pA/MfczzG3XMbYOTrV+iH6KtcX8jsiB+TbnHq18C0yZm7JmqyC/SCycHEMFqZhO1GP5kAgMRBiQYg+Bsb+LAwDkZvyV0IoBQhKCcyIEfYtZ8KzSJkRoLE1EerNGDWHL7y2ToR8ZDdLL1ZemXkwP8OCo8f2E/jMofEV2TA/7pBPfHRot4VgQD3Mmr+EsFxX5o9mQAhgvrLCo5GInoqiwQLfAYlOIZmexgsmD/3MWJAmvafv3rX/ueKSE5J2O/HG9EdAknJfy7XOY1S2AShkDHCxgr81tDICqkNpGI6JpY3PCz/VtEUxn0G/ObWia8JGJn6nCy9suJRESXIAiCIAhCBSgmusr/nS5BEARBEAQhMSK6BEEQBEEQKoCILkEQBEEQhAogoksQBEEQBKECiOgSBEEQBEGoACK6BEEQBEEQKoCILkEQBEEQhAogoksQBEEQBKECTJDowhu/82/5Hlfwjr2dd9JyvVkp8Joe86Zy/Br6zvXL+O8POqiXnffdRpPnHe6Vg8v+ge0HePWSeau/IAiCkISyfpEeoqP1QMh77trvpJ2Lhif2fYEQXStrqKPtDtqmd9kEXw8zSj2bb6a7O2PynBAY2BX0wPi824/L0Ez+mxZPlncsFmmbOALt5tZHoL5ylLXSj7suNk0b9NvFKb3hkdu9lNZt1RsR8Psy53SctK8figei60aird7z5YHJVoZMTYbVIbdJbfH+HvbaIbz3DUS9c/JEvJNyPMErVzKZDD355C94eyJeam5eKYVX8iDtsbwDEWktXLiQ9uzZw6/2QftccMH5+qjHe++9V3AfvMj4yiuv5L+LvdIKadbV1UW+eibJuwDt12i5r7GZM2cOXXfddTQ4ODju/Sbq1Vl2O0+2VyJN9WdoMjAhv0i/rTdHVU0tBd6N5ekU5TpPnHjgAZ2y1Na21Pts7lM9XB+cJLB3ZGUj9W3WecSns4aWTIRXcKqgRFVaCWJTH9mhZlrte5CUIbfqa2N3HWWMZy3uutg0Q8C7G/W5bZt7qG5x5b2pUxsIrlYatvp1gWhVbdJqvy9znIHhncrGAsJk06ZNE2qIL7nkEnr22WfpO9/5btmCC0Ll1ltv5ZdXHz36rt7rieFvfnOD/3n55Vfotdd+F7gPBMfFF6fp0UcfpS1bHqDp009nERYGzj333HP0ViE4DkH22GOP6z2FmJdsP/zwP3Oe7r333oB4u/TSS2jmzGq9VRnsdkZdfu1rX+V8lgPqDkJpvEBdok5Rt8LEUF54cWsv5aobaaEdWuABNUe9PNBiALZCD+rY/Tt30E7+aGOGfYGwVDBcweLEvSYBuV7L66AE4N1bka7n8aiav8pPCwItEP6Et8M2ynaeVT7n6d0A15pQIwjmNSbkotJcMX+Qsm22d0Cx9Y68gQrUVfA+3n1v49AtH+f8eqHc/LYH52n9bVx2PsZ17dVFflsT2xa6LdutfBXcR22j/tgbpWZx6hzk262ngn5hUO20zvIgQtRTbb2Xn/Y0pfo7/Prq2tCR73tx18UdK0ZnF/WN1FG9yWegTWL6YuR5VhupT6BOoq5Jes8EoB3Mve12L6mPKOx+fv+a4KDcskYZzt1Ovw6g0m1X4rm7PEMvTB4gWiBe/umf/omOHXtf7w1iBNEzzwQF5OzZtUqoHaH+/lc5HXiYzjijVh8NcsUVV9Abb7wReY9581J8fZx4hMh88UVlr0LOgeA577zz6PXXX9d7BNQT2gd1K0wM0/S/JbKdevsz1LpADcnKQIGWBY1UpYxjYVhJGRztqYgekF1aaOGcPtrY5nnNYDQyyrBvKxLGgWHduVgZ9Zw9+HfR3bd0cRp2eDHeiDl5hgFcWUXU7R0NoMTGai2kuOx8rjKSnYUhtug6MuC+zTS4eyndxCIMBnCVEoddviirmo/w3VJax4Y8owwgwm357bvat+cFXEMjETwPnV46q3c2Uo+1vUIZ/65E4dIqalYCZKO6T1fYfYASjm05lN0KL7ZnKLMIZrzL835qAdVWpB+0zK2j0b1Zvob/PmAPmDkaHqmiGowJTjr2dS5xxwpQ+W4m1f84facvQFwqMbLvlntw0CL6vC5VblJt2ob64v5xoxKeql92Otf4xKTlnVACyyjN3l88OyHtnrSPoJ835Z9JCLDV1UQ9nIh6XpuIhknlc6cerJ1wbsuaG6lx7wN0037VZ9W5Y8UOZZkQlQnn7NuXo8997nM0MDBAF110IZ/z9NNPc5jHhJPg3UCI7Xe/+x2dfvrpoeEpOwxmwlINDef5oSpg0oXIsO+JsNojjzxCC9XsAPcy18+YMaMgb/AIwUtk0vjJT37C+21QtjPPPJP/NufDO4IQJEC6Tz31FC1YsIBOO+00Lttjjz0W8JqZNPCB2DB1ZtK1Q2+o39NPn871NTw8HBu+CyNKEB08OMTeLdQjOOOMGurp8XqRDcqGYy+99Gu/nlxQBrQ3QDlMWMx4t/bs8R6qs88+m77xjTX8t6k7cPXVV/M1Udh9BZh+Ztrp8OERmjt3LtczMP3ChFRBVdUM+vrX/4bbxL0e4UXkE+lfe+21LBBxPKzfoU1QLvse6Ocf/7j3MP3d3/2t6ovd1Nj4Ma5P40X7whc+z9uo9yR5RnuhTlG3wsRQ9kL6bVn1oPghRgy6VUEvk49lJBOjDNLa/IDNXookwPBv7qPGlZiNx3icioBZu+1dgddkS/eo3rBRhmlRinK7LYGlzu3oT1E6IlwYFBBBvPtmLTEDw5yjVDrvWRrtzup7QfgWbtfNtXwTfhm6aM9elX9nu2pO0kYZpZ6tpj1C7hMFe0RrfC8hh59D+4iFFrEdWhTMm+OvfNN00cCQ/tPGuS5A3DFDAwSs9vCke6lNC4aCvuCUyRB7nu3JZC+a/jvi2Uh6TxZnJs/qE/7FFSWO/cmK7gc2ifqI7ueqb5sa7NrwAPX45UhRTbUS5nNUvenQIsK5EGyMFmxb4uq/BIwX5Qc/+CGHjMIEwfTpH2avCo5DGDU1fZyNUCazmGfy2P/gg1sjvSwwcAiDmXvAswOhgDVMMFjYh2M4B+cC+54Iq8HIPf30LzmMBhDKAvZ5SOOss87y0wjDiEmcj7QgRsz5s2bNoldeeYXDhWefXc/3xXnf+ta3C8KUqCcYftQH/ka6AOfjA5GE+jGgvmCIw+o3Dlx3/vnnU39/4VgHow6xAWO/YsWNnHc3n7geYhJi4d13j+q9QXDOtGnTlCh5h7dNWCydvpivxT0OHXqHampq+Dy3rvFBPT7+eHRo0nj0TL0jHbutjxw5yvUMQQPxZPqFHbrFxAB1iHvPmFEdaGfkD4JqaGiIw61GcEHw2G0CcYg+797jxz/+Mbcl2hT5ePHFF3XK4dh5BqgnPANI77nnnlNtcjXvR52irKhjYfwp/9uLMB7U7K1FWtRCan5Mu2zPhw88TVmixXGGIQQ1UPtG0FnkHIsyDDdh4Nfiq9xvUMaJoyCjNOycuu/AaKQoKSZ0Cu6bG6bRpGGxCoHyJQMCzQjQZZT2w8/hcBgMgsdaKF94rxaqd+xk2HWGuGMBzJquzT002tAaFOy2IOOF4lbo0SbyPHiNzP5V1OwvIYl5NhLdUwkqLXJC11Bp7LDg6vmuiE1KYT8PooR5Ni+oMVHy1n0qYajseLYsL104hw973gmImijDgLVGZq0PPAKgvv5sNiYvvPACb8Oo7t37G/7bpaEhxaEt21Mzc+ZMFjVGJOAYzsG5wL7n228PKWN8kM/FfSD0DPZ5bhouEA3wDMHzAW8NhEptbS3nBRw6dIief94rD+4JIx+1RsrG1JvJB0AoEPeCgQfueqykQJwePXq0QEwBz4vzCd/YQ2DAq2YD4RcmxuJAPtGWixcvVvUw7F977Nhxv71xDjw99fXncB5+9rNHuW3iQH7D6h1taEKn8Ooh3bD8Qszgvube5vooMAmA5xH3xAftiS8KxN0jKXaekQ+UB+XCfdC/0PYitCaeMfxkhDcThhcGYTPaq0NIoRjjAAOTwAMFwYVvQRqDsrv0B5/Fl7rO9hKVgiuOCj0uhkJPBc4d3F9YG11P9SmDno4NbRaIslQNVQ0NjJvBqjTwiNahDTi02BspfCCO0r2qrUNCyME6gVclLwDiros7Fgl7NdUsMGN7F/ML8r1P+Nql8PO8MF1Np9m3yfIQgfBnI+k9i8FhQHzDUqezMdRjmwS3n6Md9J/ssdN/OjTBa6f+wzo/Fn6YQFU30+oi69QQ9onyQhkPBLxIN9zQ7ntsioEw4rRpp7JnohgwdBAxkwGsaYInxHg/8HG/EQewzwgZhJtsr0olgYCMWieFvEEcGbEDQQSPkzH2yPPs2bN9kYmwG8TBsmVLfTEYBTw0CKsaIM5tsWv46EfnKtFRTddf/yVf2ODj9iMILnhI4eVCvcKjFAb6aVyYslQQArXbGh6w8b4HQHns+7hfMhAmhjGILiMiWmlFE1HfU0lkgb0eZ4AGrcX4WPNhPABYf0OW0EBYqjjKuK0PLvyNuw4elLwgw2w8f64ply8OF0V960oLT/ubbnxuhEdHhx4zrsFRIhNeDu++WC+l96NMCOsUC8mNlZi2GDPwiNam6a50XcATEkCVH986DfPU8MJ5qy0CobeY62KPFYFDZ7VeO6BNaD7WYOmDEUSfFxSJ7BUOrdv8s5H0nknABCDvPfWWAZSO7ueqb5vni9tB/+0dV0K13Rz3+u2omoht2XCzL/j4gwkU1nsV8TxC8OCba8bQwhhj2w5ZYdaPb6XZ3pk43nxzPxthLNAGMPQwqmEgnHfZZZcF0oVRRx6MmMExhKvCwmhxIMxjFioXSwPrqY4dO8brfZICI53L9Ud6z4AxriakBFAvqJ9yvFsG1ClElAn7Aewz39CDcDChXoA8onwA5wCEv4wQgNhE+G379h2BfCH/uM54jlCP8F5hPZwJv+IceL1M3WEfQnw//em/BcQGRA4+bhgVQgf1gXSQPryOYaDt7H4xFtx+b0hyD1Mnpt3hccRavzDQPihPWHqoU6Rj+ogwvpS5kF4Dg9reTM3UQ3rNYghYd5L/7R7M4L1F4ttpV3crrcb6q5XYn6WeEc8tDqO38D580zDD27lEg1oX3d3rhWRW6z0cMtJeDnhcWld6afLvPCljvkT97d0jR1n2ivGpLI5uSt2p8uXlDUYi2z1KYU77LmVUCN4EdV+d28DvSLlsW7uU9gXOV3A+8Ye6L2GhNTwCfCTR70WNnei2KAmIyowqlypbK9qZ1/DAIN/oLcKO6CMssjmc5teIwvzG2nZatzsdaIuNt3htGnfdntg09WYkWEunroXnSZ1/026rLwCrX/m4fQbo84L5z1HO9wpFPRvRaZXKtrVZSu9Ev1+ltkbVs1Sepwv9fN569Wzp58vtI4XHy/9NPACvDYwevBEGrF+B0IJBwgJhLE42+2GQbQERBcJpuBYeDnshvYt7f7OgeebM59j7gg+w85QUhHkgPMxi6WJpZLO7eUE38gzshdo29pcLTH7jcNNNck0xYOTjvIlYxA6PEsJaYCz3NN5QCDiEmrH+qbf3RQ7PYe0d8mDuZ9oba6KSikqE4kxfQZ2j3cJA20GomH4R1T5hGGGI68xC+rB+j/4Ydg+EzjE5gGcTZYPnEOvlkOff//5I4jwD8yUDeCPNFxSE8aesH0cVhFJAiGvcflhWEMYRs57IfKNtooGwgkCAR2YsHiVB6nIikDodOxPy46iCkJxltKTYNwcF4QQAA1NOeFCYHEAUwLuVxMMpJAN1GfZTH8L4IZ4uYcLAQnb8KG1lQqSCUBw7BAdM6KZSiCdBEE5uinm6RHQJgiAIgiCMAxJeFARBEARBmASI6BIEQRAEQagAIroEQRAEQRAqgIguQRAEQRCECiCiSxAEQRAEoQKI6BIEQRAEQagAIroEQRAEQRAqgIguQRAEQRCECjBBogsv8t1Bd7XrzfFk0W10/847abnerBR4f+D9a1r4b/zS+s71y/jvDzqol5333UZezXyw4LJ/YPtBC91+3/fo9kV6UxAEQShKWb9ID9HRemBT4QuM2++knYuGaeMt99CEvWkPomtlDXW03UHb9C4b8+oZj1Hq2Xwz3d0Zk+eEjOtLm7kMzVSlN2mkZ2LrrFIUaZs4Au3m1kegvnKUtdKPuy42TRv028UpveGR5NVF6BOr53RQ29rtes8HCYiuG4m2es+XByZbGTI1GVaH3Ca1Y+jvgbYK9gXAbTJfP1lFnquwl11/+tOtdN5559H3v/+g3hME11RXz4g8PhX4ylduoJGRw1xu/P3qq6+O66uQ5syZQ9dddx3NnFk95tcs4bVJX/jC5+m5557jdMz2aaedps/wePnlVwLtaOfh+PHj9Nhjj1F39zP6aBC0+WWXXUY/+tGPQ1/NhONNTR+nhx56iA4cOKD3BrHz9d577xWkhX5TV1cXm0YYxcqB9jvzzDP57/F+pVXcy+DtPjSZSNJWE82E/CL9tt4cVTW1FHg3lqdTlOssczAdB3hApyy1tS31Ppv71NOgD04S2DuyspH6Nus84tNZQ0smwis4VVCiKq0EsamP7FAzrfY9SMqQW/W1sbuOMsazFnddbJoh9Nv9pofqFlfemzq1geBqpWGrXxeIVtUmrf6EqBzUPRbXqYmUlz73BatNfRFs2rFcYRcDjMxUFlwA+Z9IY3nppZfQ0aNH6Jvf3DAmEQDDDiFz9Oi7eo+S2UrIfOc73+W08fnBD35I77wzQs88ExRUV199tZ+HZ599lq688hMsYFywD0Y6Chw///zzlaD5ZazgymQytGfPHr4f8mcLLhw/99xz9FZpxJXDCB9TF+MpuIph9yHkA2KnHObPv4K+9rWvhrZNOaAOUF/og5OV8sKLW3spV91IC+3QAg+oOerlgRYDsBV6UMfu37mDdvJHGzPsC4SlguEKFifuNQnI9VpeByUA796KdD2PR9X8VX5aEGiB8Cdm0LZRtvOs8jlP7wa41oQaQTCvMSEXleaK+YNqdm57BxRb78gbqEBdBe/j3fc2Dt3ycc4v6tre9uA8rb+Ny87HuK69ushva2LbQrdlu5WvgvuobdQfe6PUAKTOQb7deiroFwbVTussDyJEPdXWe/lpT1Oqv8Ovr64NHfm+F3dd3LFidHZR30gd1Zt8Btokpi9Gnme1kfoE6iTqmqT3TADawdzbbveS+ojC7uf3rwnOZlrWqEF3t9OvA6h025V47s4boyg4v34f8/LDdbaonupG+miP6QtP9dGo36bLaElTH238QHodT05g2CFgYESjuOKKK2hwcLDAQwVvJDx4YN8+79iMGTP4XxsY58OHRwLCzqah4Tx17GiklwwgD2+88UbkOeb4sWPv6z3JiSoHxMq0adPo8ccf531CHtQXvNWTlWn63xLZTr39GWpdoIY7ZaBAy4JGqlLGsTCspAyO9lRED8guLbRwjhpA27yZKgZhzGi3FRlQYVh3LlZGPWcP/l109y1dnIYdXow3Yk6eYQBXVhF1e0cDKLGxWgspLjufq4xkZ2GILbqODLhvMw3uXko3sQiDwVmlxGGXL8qq5iN8t5TWsSHPKAOIEEt++6727XkB19BIBK9Ap5fO6p2NnpdAb69QhqwrUbi0ipqVANmo7tMVdh+ghGNbDmW3wovtGcosghnv8jwOWkC1FekHLXPraHRvlq/hvw/YA2qOhkeqqAY230nHvs4l7lgBKt/NpPofp+/0BYhLJUb23XIPDlpEn9elyk2qTdtQX9w/blTCU/XLTucan5i0vBNKYBml2fuLZyek3ZP2EfRziBr9TEKAra4m6uFE1PPaRDRMKp87tRhzQnsta26kxr0P0E37VZ9V58axbW2W0jtbVR1tp7tTaAuVFuc3RYMrW1lwd6l64edpqMO7B/rW0DAtVAIN+QJJQsRxYPZ+5ZVX8t/wpiBkAc8DwCwfM/yDB4foggvO57DSW2+95XvB7GuHhob4356engLDDON5zTXX0CmnnBIISyFtEzYy94anxb0nQkpnnFHL23b4CaGhadNO4WMITblph4UUw/ICPve5z7EwmTt3Lqff0JDi+wG7zMAu99e//jecxuzZtX66wITBcL/m5mbeByHhhuSKAe8IRMljjxUKD3iAjOGdNy/Fws1NGx4oeLmQH5NnF5T1yJGj/Dfye9VVn6JsNuvXI+5z+unT6f3336dvfGMNn2fXCa4544waeumlX9NFF13I+8Kww9bGc/bkk7+ILIf391FatmxpZEgTIF3TVm4fOHLkCJ1zzjlqu5/FmwljAtQJQB+69dZbeb/bD424QT/Fx4T1IFTD+jTay77Ha6+9RmeffTaft2LFjXxPpGf3TbuvJskzzoM4RV5Qj259TAbKXki/LauGWz/EiEG3Kuhl8rGMZGKUQVqbH7DZS5EEGP7NfdS4ErPxGI9TETBrt70r8Jps6R7VGzbKMC1SDbvbEljq3I7+FKUjwoVBARHEu2/WMhQwzDlKpfOepdHurL4XhG/hdt1cyzfhl6GL9uxV+Xe2q+YkbZRR6tlq2iPkPlGwR7TG9xJy+Dm0j1hoEduhRcG8Of7KN00XDXg2LIhzXYC4Y4YGCFjt4Un3kglNFfQFp0yG2PNsTyZ70fTfEc9G0nuyODN5Vp/wL64ocexPVnQ/sEnUR3Q/V33b1GDXhgeoxy9HimqqlTCfo+pNh/YQzoVgY7Rg2xJX/wFUnncPUnPmNnXfukDfW9fWQTX8fCtxZa2ng6hmAbnVu/9YQ8QmrPToo49y6Obee+8NDS/BoMGoIMw1Y0Y1G1l8sEbIXPvKK6/QrFmz9BV5YBRgxCFkcJ4JS8G4ABM2gicnk1nM+4C5J9K//PLLeR/OgyG65JJ8WAXGCWExHHvttd8pQ+gJxjCMAHrwwa18PtZQmfOnT/8wC49vfevbLPiwNgnlxXm24AIwejB+EB4oDwTXwoUL/TLiuosvTvP9AOoF9eOG5JJgQkhh15nQF4QQDHA2u5u3bVC+vXt/o8p0UO8pBELo7be9AQdiFh4reK5MOA2GH+0OcbtlywP8mT79dD6OPoQ6hdh+911PuEWBdOC5Qr0gXy++2Mv3iyoH7gcRbEKaUe2L63HcnIO8G5AG2hvnoH+hn5lzjegxfQjlAm7YDu2Ptkab4xmB4IrqR+49/vEf/4n7BSYlSN/cMw6TZ9QXQs+mf6NfGaF1+PBh9iqi701Gyv/2IoyHmoPyWqRFLaTmx7QrdFYJT1OWaHGcYQhBDdTGmLiLnGNRhuEmHnQ98VXuNyjjxFGQURp2Tt13YDRSlBQTOgX3zQ1bIZTJAcqXDAg0I0CXUdoPP4fDYSUIHmtxdOG9WqjeeZbCrjPEHQtg1nQpYz3aAC+L3g9sQcYLxa3Qo03kefAamf2rqFl7YmKfjUT3hAjRIkN9orw6dljQX2ReMoX9PIgS5tm8oMZEyVv3qYSh0gvZUr10W7PUU9vM3jFffPKYkKZeU+betNq2hJUtVFncRk9+igGBdezYMRYMGMijgFGB0ccH3qCZM2fyZ3h42PdqPf/8C3To0CH+2wbeClxje7/M2hbbe4P1SjDkJh/mnhBAo6O/99czGXFggAgzabtpuCDPtbW17HGAgYfnB+fPmjWTQ2/mHjBoAN4vk9c4kC6MvckH8g3hAg8SQL2gfsoBXpIXXii8FvmCdwYeEhhkGOa/+qu/CpQdHiB4kZIYehsYe4hOiGq7jSDe0GfwgbCAOIDIgKC02zcKXAdxBg8RQL6KlQNi0aTd359j0ea2Cc6FxxFtCrEOEWkwecY5aGt3XRwwfcguVxxR/eiP//iyyHuUgskzPKP4XHvttXyf66//ElVVfWTSCi2bMfxkhDcThhcGbn7aq0NIoRjjAAOTwAOFwRXfgjSD6+6kAsgC4ktdZ3uJSsEVR4UeF0OhpwLnDu4vrA1eg9KQjp19F4iyVA1VDQ2UZrAmEfCI1qENOLTYGyl8II7SvaqtQ0LIwTqBVyUvAOKuizsWCXs1iZoztncxvyDf+4SvXQo/zwvT1XSafZssDxEIfzaS3rMYHAa0FpdvDPXYJsHt52gH/Sd77PSfDk3w2qn/MkZAYgJV3Uyri61TQ4h3KEeD8xGK9XbBU5r37CogzLSw6to/qHcmByLFNkIumMXDo4QZNYxfEpEBYJhg0IuR9LxKAY+F8ULgA8/FoUPv6KMeMHjYDwFwww3tvleu0kAoQGT093vrnWzgbYGnw4g5iAaIW4hcgGuxsB0ixBhshKi++MX/7HvgokD57TVm7rahpmaWEgCzWXTgHhAHECMIBxrR5AIRjRCxIa4crsAOA/exF/ibkKELhAruYwT1WAnrR2ir8bwHwGTAeFzxgSc2icA90YxBdBkR0Uormoj6nkoiC+z1OAM0aC3Gx5oP4wHgUIElNDDYFkcZt/XBhb9x18GDkhdkmI3nzzXl8sXhoqhvXWnhaYcx+NwIj44OPWZcg6NEJrwc3n2xXkrvR5kQ1ikWkhsrMW0xZuBxqE3TXem6gCckgCo/vnUa5qnhhfNWWwRCbzHXxR4rAofOar12QJuQZfijiD4vKBLZKxxat/lnI+k9k4AJQN576i0DKB3dz1XfNs8Xt4P+2zuuhGq7Oe7121E1Eduy4WZf8PEHEyis94r1POJ5RH+5g3ZZAjjvPdNwXeq6RQjWfnYg2qrjPavvvPOOMo41vqGFkYIHA54FAzwz27fvYIMBI5gEeB3OOuss37giJBMWXsR5MP62oYcRB3aoCCGhsDVJxYBHxgjFYmm4dVEMGLeHH/7nWO8ZQLp2GXEu6gZlHwtGQJn6AgjpQQRCvMALYkJhuCdCgMgLjuNahDONsYbhxnollMc12hDFtnfHeMjssBn6C0JbqGtTvl/96lcsAsw9EApGGA19KawNcO1nPnMtCySAssSVA+uWTDgbIKz89tvDgfowXh+kA6IWl0O4Tpt2qr9ecSxE9aOk90DdmnyivEgrDCPe7HCpAXWGe5lyTzbKXEivgUFtb+aFruYbRYVg3Un+t3swg/cWiW9XA2orrcb6jJXYj1mrFyeH0Vt4H75pmOHtXKIHtIvu7vVCMqv1Hg4ZaS8HPC6tK700+bd9lDFfov727pGjLHvF+FQWRzel7lT58vIGI5HtHqWwL8V2KaNC8Cao++rcFvx2kM22tUtpX+B8BecTf6j7EhZawyPAR8a8GDgZ0W1REhCVGVUuVbZWtDOv4YFBvtFbhB3RR7z1OKYtDOY31rC+Jx1oi423eG0ad92e2DT1ZiRYS6euhedJnX/TbqsvAKtf+bh9BujzgvnPUc73CkU9G9FplYq3KB39fpXaGlXPUnmeLvTzeevVs6WfL7ePFB4v9zfx4BnMUJ26fh3aqdMbC+5fk1Pp3UEb53rPjveM2+2p6nlzvfXsxD+HAAYW4RB4IfAB+L0nE9qxF+liP843YbE4zHnwoAAY27Dwont/s+gY63Zwb3hIgFnAXCoQivBGYaFysTSi6sINB8EQ2r+TBe9JnBgMSxfXYH9SgRdGnJcQ+YF4QajOLJA397TXvCUBHiUjAiCEICDRRjD6EFoQYVgThfwgpAbMvUoBoUiEs811CGtDwESVA2ChPY6hXuFdMuu/DKa8ph/inDAg1H7yk59wu5o+h/skBaIT+UN9oI/NnPlcQT9C3sLuAS8efgbDLKRHfzPn4HmANyuMsDybPg5RXc4kpVKU9eOoglAKCHGN2w/LCsIUA0IFa6BgJCplCCAGgGuIhdKA+IZhD/vmqTA5gTcTQrDU9XrjRbEfRxXRJUww8OZg8XORhezCBw6sucu/PUJTpkdvMgMBZH4OoFKI6Bo/4OEyXhw7fFcuEAXm50AM8PKcKJFwMjHebVUOIrqEE4YxqpUJkQrC5MANwdm/b1QpRHQJwolBRJcgCIIgCEIFmJB3LwqCIAiCIAilIaJLEARBEAShAojoEgRBEARBqAAiugRBEARBECqAiC5BEARBEIQKIKJLEARBEAShAojoEgRBEARBqAAiugRBEARBECrABIkuvPplR/6N/+PJotvo/p130nK9WSnw/sD717Tw3/il9Z3rl/HfH3RQLzvvu428mvlgwWWXfiAIgiAkpKxfpIfoaD2wqfAFxu130s5Fw7Txlntowl5tDNG1soY6It7lF3yf2yj1bL6Z7u6MyXNCxvWlzVyGZqrSmzTSM7F1VimKtE0cgXZz6yNQXznKWunHXRebpg367eKU3vBI8uoi9InVczqm7rsCA+UO1ivg8s3XvbRIH50//wpqbm6mH/3ox/7rboq96BnXXHXVpyibzVbsRdDjjf1exYl60a55V9/LL78y5tf6IC2A/LqvKzK498FLn6+77jqaObOajh8/To899ljky59Nms8991xoPeB4JpOhJ5/8RWQaeH/elVdeyX+/9dZbgXdWor4vuOB8/ns86sMmrA8bTsT7M5NwMjxDJxsT8ov023pzVNXUUuDdWJ5OUa7zxIkHNrKUpba2pd5nc596yvXBSQJ7R1Y2Ut9mnUd8OmtoyUR4BacKSlSllSA29ZEdaqbVvgdpGd1l1dfG7jrKGM9a3HWxaYaAFy3rc9s291Dd4sp7UyuLqtfFdWpSYtWrVT++oDR1MgGTAhjdTZs2TWljAaM/kYYYRnXatGm0ZcsDYxIYEDLf+MYaveWBev/Od75L3/zmBv784Ac/5PdEPvNMUAxdffXVdPToET7n2WefVYLoEyzEwrjiiisKRJwNjr/xxhuxou3ii9P06KOPcpmnTz+d8w6M8DH5HU/BVQy7nZEfI15LBfX2ta99ldt1PEA9oj5Rr8LUoLzw4tZeylU30sJFehsoI9fakKNe9g4gvPg9ut0ch6di5w7ayR9tzLAvEJZqodvvy1/D4sS9JgG5XsvroATg3VuRrufxqJq/yk8LAi0Q/sSs3zbKdp5VPufp3QDXmlAjCObVKreLSnPF/EHKtnneN5+td+S9KoG6Ct7Hu+9tHLrl45xfL5Sb3/bgPK2/jcvOx7iuvbrIb2ti20K3ZbuVr4L7qG3UH3uj1ExWnYN8u/VU0C8Mqp3WWR5EiHqqrffy056mVH+HX19dGzryfS/uurhjxejsor6ROqo3+Qy0SUxfjDzPaiP1CdRJ1DVJ71kEtEG+vbz25/svqqe6kT7aY+r1qT4a9etnGS1p6qONU9WDJxQArxOECjxxUcBwDw4OFohgCB1z3b593rEZM2bwvzYQTDh3aGhI7wkCwYHjrqizmT27lgVef/+r7G1Cfs44o5bTrquro8cee1yfKRj6+3OqjmoihbAwuZim/y2R7dTbn6HWBWqIVgYKtCxopCplHAvDSsrgaE9FQGjE0kIL56hBv82bXcNwYBa+rYgRgGHduVgZ9Zwtarro7lu6OA07vBhvxJw8wwCurFLTCu9oACU2VmshxWXnc5WR7CwMsUXXkQH3babB3UvpJhZhMJKrlDjs8kVZ1XyE75bSOjbkGWWQERbKb9/Vvj0v4BoaieDJ6PTSWb2z0fNs6O0Vyvh2JQqXVlGzEiAb1X26wu4DlHBsy6HsVnixPUOZRZB6XZ6XRAuotiL9oGVuHY3uzfI1/PcB2wjkaHikimrgwXTSsa9ziTtWgMp3M6n+x+k7fQHiUgnUfbfcg4MW0ed1qXKTatM21Bf3jxuV8FT9stO5xicmLe+ExGxbm6X0zlZ1v+10dwrl6qGN3OYpGlzZyuK1S92D++ZQR76dhoZpoRJoq6uxI1m4NQ4TdoIXxISogAnnwJsybdopbGARxoLH5aGHHmLDa4ebjEHv6ekp8JbYYTDw9NNPs9gw4TlgpwvPiX1PhKvefnvIv5e53j3vvffe4zxDnOAYcL0u8GRcc801dMoppwTOR16OHDlC55xzjtru53NNuMwNpdlp3HBDu19nZh8weUT9IpR7+PAIzZ07NzYEGIYRRGGiZmTkMJ133nn897x5KRZFYd7Ja665msWZOdeloeE89todPny4ICyGesF9IMjg3cK5AGICbW3EGMoYF+a0+4p9Dtrp9NOnczmHh4e5nu1+gbaHeAHXXvtpdf+GguuB3T/+7u/+lo9DIIb1O2Df47XXXqNZs2r4vGuvvZYuueQSv75sL5rZTpJn9DvcH88R6swNiwqTj7IX0m/L9hD5IUYlkpqqgl4mH8tIJkYZpLV5A8NeiiTA8G/uo8aV8A7EeJyK0LKmNeBdgddkS/eo3rBR4mVRShkkS2Cpczv6U5SOCBcGBUQQ775Zy7jBMOcolc57lka7s/peEL6F23VzLS+KX4Yu2rNX5d/ZrpqTtFFGqWeraY+Q+0TBHtEa30vI4efQPmKhRWyHFoPz5vgr3zRdNBA2kXauCxB3zNAAAas9S+leMuG0gr7glMkQe57tyWQvmv474tlIek8WZ743LOqLK0oc7x6k5sxtqq/WBdpxXVsH1fCzosSVtTYNApUF+1YdWhyHcCu8KK+99jv2tnzrW98OFQQQIk8//UsOK4FLL72EjfNll13G4SZc+8orryjDNYuPu2Qyi9kzYsJPRnABsw/HcZ7B3BOhtXPPPYcNHs6D4Wxq+rjvPTDn4RjKAYERBfIMI/jgg1v5fKxvss+HeMMxCAx4b3BvnGcLLoA6glGH0MT5YOHChbwP5+M6hOJwPzB9+oeVoDsaWb9xoK5BmJgyghLhSdRJNrubt21MCNCIjTBmzpxJx44dY2GA/JmwmLkW98H9sd4LwnLFihu5vXEuroXY2Lv3N1z2qDAn7o/j5hwIGwPOhfg1ggaYc00Z0beOHTvO+yCK7esB0kffgEBGPUPwYDJh+gbaBHUEEeze4x//8Z9Y8KM90Z/d9g7DzjP6MkQa0sIzAkGKtkd9ol5RR8Lkp/xvL8J4qHkzr0Va1EKNaga9K3QmDE9TlmhxnGEIAbN7Y1CcRc6xKNFzExsKT3yV+w3KOHEUZJSGnVP3HRiNFCXFhE7BfXPDVthncoDyJQMCzQjQZZT2w8/hcCgMgsda0F14rxaqr9V/asKuM8QdC2DWdCmBMdoAz5DeD2xBtjNDKbJCjzaR53lhPW//KmrW3qPYZyPRPSGctDBSn0hP1NYs9dQ2U+PeB/JCjp+vNPWa63vTatsSVrboY6EYPZFIAjwE8OgYAxsGjBwMLIyICSvBkGCWb0TE88+/QIcOHeK/bWDk4CGxQ1fGINveG+NJwfnA3BPeF3xeeOEF3v/OO+8oQ/Y+/w3MecBNwwV5rq2tZdEAoQLPCM43+YFwQBlxPwDvjSsewkC6EHwmHxAoEC4NDV4+jh59N1D+Ujj77LP9stsgX7feeqtv7CEu/uqv/ipQdhj+888/P1SMxfH444+z6ISoNm3keao+4QtWiGAjXuClRPuDqDCnyW9YvaPuUGfYhmAJKy/6FvIF4PmCZy6ubXB/fOC5wj2vv/5LVFX1Ec531D1Kwc4zyoIy4T7oW+hjIrSmHmP4yQjPWwIvDEITtFeHkEIxxgEGJoEHCgYB34I0BmF3UgFkAfGlrrO9RKXgiqNCj4uh0FOBcwf3F9YGr5tpSMd6DApEWaqGqoYGYup2cgOPaB3agEOLvZHCB+Io3avaOiSEHKyTFNVU54Vu3HVxxyJhryZRc8b2LuYX5HsfZ02eJvw8L5Rb02n2baIe39MFwp+NpPdMBMKlQzkanI+wprcLXse8l1QBYaaFVdf+Qb0zOQcPDikDdWroWh9gPBAwRgjLGO9MMSC8EHYqBsJPEElGyJxo4AlBec3n3nvvLQj9YBv7IWQQPjReuUoDAQVxAa+NC0JWqFcjdjyBOsJhRgO8QbbIhEcK4sCIpShQfoQMbdA/jCgFEC0QL8eP/yEggsOAMEGYz3jD4E0KuwZ9FH31/9/e2f/WUZ15/FmR1bLrvBgnJgqhxFA53daUOiQrunICLv0BKTe/bNkKmTQ02fIihaj8koaQP4CQNuqqqxAJthKUJKSrrlp1xUXih1KH5KqgJcIiON1NVGKTjVAxOM6LN8AGac/nzDxzz8ydmTv32r5x4HykK987c+a8j5/vPM+ZGebsdIDYVW8lHzxgiNTpLANoi3p89ZPnWfTMTqYgulRE9Mum5SIn3ygiC9z1OGdkzFmM37d1Y+QBsOENR2hgIOpjjNtT7mLw/OPwoFQF2XrZ6XjTtF2ROFzDTQLh9xih8HRDLzZthkcnDD2WkgujjcjEyxGUy3qpcDttInxZLyQ3VXLGYsrgJenokZ09nTJUzmiHaT93naZ5auzCeWcsYqG3nONy99Whsvt5GeoIxoExEUesZJGdLi4SrVc4tW+r50bRMovB3Kbvd8hLjpgkZB+7A9nWK6wn4Ux3HiLa5uV7KVXsuHdREVJLrv8hTILXSL0z9cDbsGTJksizQhgsLbyIYMDIsTZMUcPthvaoX9aapDzwyKjHo14eeMna24PQTxEQMr/+9W9yvWdAvoRANV/S0je6FqlZVEC5ohCPEyIQ0YBI0fAjZc6dy5q781EaxtQVAghOQnDJdW4c43qOEGUIajf8ym83rMs8IXR2/PhxO75aj7QxCMTUHFsOcCzHJOEYjs0LERclbd5D0TKoK/2p447oTIOxoR+S4U6gr9x2e2Y3UxJdQdihTdqkehdULe66k0el+8TToSE8EBiBcE3JJhmMPABq9DS80mMMUn0qsmu4XbZEZYWPjwi9HHYNmnP3YmDMtYweGXa9adZLNhbV7aAxPoOpa7rI56Hgdnstt85zqvZvD2/P1/R8eoaDPqFcu35G9wUekmaEQ2Nkj0VDRKLSvUMPYdopXR3ZcyRYQ+SG0/io1ydck6Rrj5y76vKOy8+zHuFaOjxPkpgLfJy7NyOScyZKF6//wQ3tMhb1bca5kZlXo+BlK0nn0SCsqOeVHZt9O2TPie7q+WIX7qs3zdTZnYdrpeYZXkkwCjyPC1GAt4MPIkJDThhY3Y6A0RBOPRAkhNAI23AsYay08GJa+YgCyqcebtmNhsEALwPeqCJ5UGeEhIac+KR5fTC0jz32Q7uf9uGhyRODyXw55vjxYbt9KuR5E6nPkSNHZMWKFVMu0/WGMjaMFeFQvGiMEX2EUEOsqNdM+1rHl1Cku92FujJXtH/wkGV5x5Lzop5XzoXQJqIajy2ewOS8I7yJEEorg3acPTth64hgpR/xHOr8ziOZH3OHOaQ3HaR5Kj2zj6YejurxNAKPlZi2B8t6vtBgZPIeuDoTqEFOem48jeP7cvrxfTq7mJGHo3o8xVkv6+rdOejxFKTZ8KBndoBni5Bo0dCrJx/6kf5s9gYKT+vxni7PjMFCdh5KO9VnPHm+uODZcl9V4z5nq1V4T4LH4ylKPU+XF10ej8fj8Xg804APL3o8Ho/H4/HMArzo8ng8Ho/H42kBXnR5PB6Px+PxtAAvujwej8fj8XhagBddHo/H4/F4PC3Aiy6Px+PxeDyeFuBFl8fj8Xg8Hk8L8KLL4/F4PB6PpwXMkOgKXuS7c0P4czpZs01+Hr60upXw/kB9iTNPWm/uBcSfP+iXg89uE3299RcJ23Y/D2aWDU/6PvZ4PJ8bmnoiPaKj/8Ona19gzD/INROy5+Efy4y9aQ/RtbldBgd2yP5wk4u+eiZgUob2PiS7DufUuSDT+tJm24ZeaQt/yoWhme2zVlFnbPKIjVuyP2L9NSJlJ/+843LzdGHeru0KfwQUeXURc2LLokEZ2H4g3HKVEWt3vF/Btm9lOEuv1Byljj3DsT6uW69wvozVGcO01/t861v9ctNNN8kvfvFCuCUOx8ybNzdz/9XA97//gFy4cNG2m+/vvfee/P73g+HeqbNo0SK59957Zf78efLmm29OKW99DdTbb79t80m+Fkr505/ejY2jW4fPPvtMDh06JEePpr+fkDG/7bbb5Le//Y/Ud3qyf/nyr+S+fop+vP766+33ZJvz9hWB9yveddddcs0116S+Bos52dnZOe2vx8p7/ZU7h2YTRcZqppmRJ9LvHx6RtuV9Nd6N7/V0ycjhK/CPOcQaWSnLwMD9wWfvSXPWhjtnCdY7srlbTu4N68jncLusmwmv4NWCMZI9RhBrf5THe2VL5N1YLzud/tpztFNK6lnLOy43zxRG3XkzJJ1rW+9NbS2mX9d2mosSp1+d/okEpfbJlRBcKRSp1/dKzgXNNIORuZoFF1D/mTSWX//6rfal5D/5ye4pCS4MOwLr448/CbeYSwMjin72s3+xefP51a/+3QqR5Auf77zzzqgOb731lqxa9XdWiCVhG0Y6C/bfcsstRiz9Z6YRx9Bfe+1fy3PPPS+vvvqqfO1rPVYcgooTrW8zguub3/x7M16/scc/88wzsXpQzpe+dGP4q3W4c4g20gfNQPt+8IN/Sh2bZqB/GXfm4GylufDivmEZmdctq9eEv8EYuf5lIzJsrywJL/6rPK77ufI8+KIctJ/QmLEtFpbqk8efrR5jxUnymAKMDDteByMAd+0j38Dj0bby0SgvBFos/JkMY7h1NvW8OdwMHKuhRojX1Wl3EpPnppVjUh4IvG8R+3ZUr8hjfRUvJyh3mw3d2v22vkEot/o7wNbpqW227Xaf7eugL6q/Q3LHIhzLDU69asoxv+k/643qkpJJQ72T/VQzLxQzTk84HkREvXQsDeqzwfwDGx2M+quye7A69/KOy9tXj8MVOXmhU5ZqPWNjkjMXM9M5Y2Q+sT7JOqZomXVgDKrjFYy/LX/NUum8cFKOaL++cVImo/5ZL+uWn5Q9jXjwYvV1zi27/Ul5PDpHgvGvnjPJ+eD2VbLdBepl5mFJhmToQvjbc9WCYUdgYUSzuP3222VsbKzGQ4U3Eg8enDoV7Js7d67964JxvnjxQkzYuSxbdpPZ93Gmlwyuu67D1gExNDr6nq3vwoUdVlDMmTNHXnvttTBl49x6661y/LixtykeOKD977//vly+/H/hFg/jjrd6tjIn/NsgB2R4tCT9d5h/0cZAQd8d3dJmjGNtWMn8Ew09FTGhkUufrF5k/rkOBFexGA6uwvfXMQIY1oNrzT/xEVfUVGTXwxWbhxtezDdiiTpjODaba+ejwd4Y5p/8llBI2bbbtMZYHK4NsWX3kUK5QVjkQSvCMJKPGgNWiURZ20rCd/fLE9Y4lYxhIixU/b1zw4GqgFvWLYIn43CQz5aD3YFnI/y9yRjfSqFwaZv0GsO4x5RTSSsHjHAcGKHtTnhxQ0lKa5B6lcAbEQqogTrzoG9xp0yeKNtj7PcP3X84IzJxoU3auZBM5OMelyRvXw2m3r1i5p/NPzEXEJdGoJ56+MfsdMhOVzHtFjOmA/SXnR8bjdAw8/Jw4piInLyCBIXZv70sPQf7TXkHZFcX7RqSPXbMu2Rsc78VrxVThp2b44PVcRqfkNVGoG2Zx4b64da+O9rj9cVTaOZEMNe7pFvwOlas2Nqy+UXpPur8NoK+z3rImZelal+Fc01Gh20u9etl0q8Vcz5UZOmzveG25uHqfdWqVfa7hnXwoABX+Vzhf/TRuHz5y7fYcNcHH3wQecHcY8fHx+3foaGhGuPtho4+/fTTKMRF3hqSckNKyTIJV2H0+e2G0QgNzZlzjd1HiC2Zd1pIMa0ucM8991hhsnjxYpv/smVdtjxw2wxuux977Ic2DwSI5gsaYqO83t5gnBBEWeG9LPCOIK4OHaoVNXiX1PDefHOXFULJvPES4eWiPlrnJLT10qWP7Xfqi9epXC5H/Ug5Z8+O23yoDyINEF+Bx+9jWb/+fjtW7hgkccPW1KtUKsmxY8fsvhtuuEF+9KOt9rsbRqU+113XLn/843/JV7/6t3ZbEvLVsUrOgUuXLsmNN95ofo9aYajhWKBPgDn0yCOP2O3JeajihnnKR8N69EHanKZ/3DJOnz5t20a6TZs22jLJz52b7lwtUmfSIbKpC/2Y1tdXmqYX0u8vD4lEIUYjkpa3xb1MEY6RLIwxSNurBsZ6KYqA4d97UrrNP/Vcj1Md+rb2x7wreE2eOzoZ/nAxRmKNGdiXHYFl0g6OdklPRrgwLiDiBOWWHSOCYR6Rrp6qZ2nyaDksC+Fb+7tzseNFidpQkSMnTP0Tv9sWFR2USRnap+ORUk4W1iPaHnkJbfg5dY44hCJ2MBSDNy9KBooqciawYXESx8XI26csQ8CGHhbWEIUCp2YuJNqk5KZzPZnWixZ+zzg3ipYZiBL1CmXduGLE8ctj0lvaZuZqZ2wcnxgYlHZ7rhgR46xNQ6Bawb7PiB9CeAXCrZXdO+L1Db8GjER9bz1qyd/aNit2h+SlaP5T92pO+fVSwVZ7sdMMGlYiXJQW1lEwaBgVwlxz586zhpAPa4T02HfffVcWLFgQHlEFo4ARR8iQDq+OGkRgGx+8KKWSUZMhWib5r1ixwm4jHYYIz4iCcSIsxr7Tp//HGMJAMKahAuiFF/bZ9Kyh0vTXXvtXVnj89Kf/bAUf64doL+lcwQUYPYwfYoz2ILhWr14dtZHjCL9RHtAv9I+2vRE0hJR2nAoTxAoGuFx+2f52oX0nTvy3adNH4ZZaEEKIKkDM4lXCu6ThNMqhzYwRwoG2/u53r9q5guBFqB45cqTuGCAg8IrRL6TBu4XYaG9vt9u175YsWWLTMD8ZL4T8J58EojAN6sexWj51V6gf400a5hdt0LQqenQOETqFZNiO8WesGXPOEQRX1jxKlvHLX/6bnRdclJC/lpmH1pn+IvSs85u+UaF18eJF6/lj7s1Gmr97EeNh/kXatUhr+syVrPvP0gVPU1lkbZ5hSIGrZTUoiUXOuRjR86D9hxyIr2bvoMwTR3EmZSKR9NSHk5mipJ7QqSl3ZMIJ+8wOaF8xEGgqQNdLTxR+TseGwhA8zoLu2rL6ZGniXEo7TsnbF0PXdBlDPrkMz1C4HVxBdrAkXeKEHl0y0yEIdPuj0ht6aXLPjUJlIpxCAWI+mZ6ofWUZ6uiV7hPPV4WRPb96ZFiPH+4xvx1h5Yo+KxSzLyQCXAFIfZtk/EwoCjPIqFff1o2mfU/neuMaAaN5+fJla0T5R54FRgWjzwdv0Pz58+1nYmIi8modO/aOnDt3zn53wQPDMa73C2MKrveG9UqsGdJ6aJkIoMnJ/43WM6k4UBBhmncyjyTUuaOjwwoHhAqeH9IvWDDfht60DAwa4P3SuuZBvhh7rQf1RrjgQQL6hf5pBrwk77xTeyz1wjuDaMEgY5jvu+++WNvxAOGlKmLoXTD2iE5EtY6RK5IRw3ipVFQi6LTto6MjVkCl9RvzDQGFhwi0Xpcvfxa10Z1jCBjEqjt30qDNeBwZU8Q6IlJBcFIuaRjr5Lo40DlEOgQToiePrHn0jW/clllGI2id8Yzyufvuu2053/3uP0pb29/MWqHlMoVHRgTeErwwhCbkRBhCSkWNAwamgAcKg8BdkGoQnKvdwiC+zHGul6gRkuKo1uOi1HoqSDv259resFf1y3pyPQY1oqyrXdrqGaJZDB7RTsbAhhaHM4UP4qhn2Ix1Sgg53idd0j6vKnTzjsvbl4n1aor0llzvYnVBfvBJrMkLSU8XhHLbD+u2pxPrjdLPjaJlFgIP0viIjK0krBlswutY9ZIaEGahgKn8eSzcWBQEV79M7NW6lhOergZIXGBY71ZIdr3Wy7qVbeGaTURfIGy7jJiNrZ9LgEhxjVASruIxolxRY8SLiAzAMGHQ61E0XavAY6FeCD54Ls6dOx/uDcDgsR0h88ADGyLB0WoQCggYwnhJ8Lbg6VAxh2hArCBygWNZfI4IUYNNiOo73/mHSCxlQfvdNWZJweKKyqQIrgcimhCxgsBNW8+G92zhwoVW0FB/hAdChzAm9VH4jgBUT5uGDJMgVOgvFdRTJW0eMVbTWQZwMaAeVz54YuuJ0NnAFESXioh+2bRc5OQbRWSBux7njIw5i/G5UlUPgP1H6wgNDER9jHF7yl0Mnn8cHpSqIGMtSDWttisSh2u4SSD8HiMUnm7oxabN8OiEocdScoGwEZl4OYJyWS8VbqdNhC/rheSmSs5YTBm8ER09srOnU4bKGe0w7eeu0zQvhV0474xFLPSWc1zuvjpUdj8vQx3BODAm4oiVLLLTxUWi9Qqn9m313ChaZjGY2/T9DnnJEZOE7GN3INt6hfUkPOjOQ0TbvBwvJYvyZUzOqChEYIdfG8KGUUPvuSUQUxGZ9Yp7/FTYst4r7xEv58+ft+EbNbQYKTwYeEgUjOiBAy9ag6HrdeqBR4MwkBpAQjJp4UXSYfxdQ49RBzcMRUgobU1SPfDIqFCsl0eyL+qBceOOOgSHa+iTkK/bRtLSN7R9KqiA0v4CQn6IQMQLXhANhVEmoV/qwn6OTbsDkvYkjTai2PXuqIdMw2YqIjRsR3/T7wgu1hZpyBkI/Z49OxGrs8Jx3/723VYgAW0hHek1ZEw+5Pf6629YgaH1J8xMiI556o6ven3oD8haXI5wnTPnL6P1ilMhax4VLYO+1XoybuSVRrLfXRh7ytJ2zzaaXEgfgkHd0GvXYehdULVwFVwNN3AFHywSP2CMQL9dVHtwM9u50g7i5Bi91c9y1Vqyv0cKnaAV2TUchGS2hFtsyCj0cuBx6d8c5GmfR2SM+TrzPShjRMrWK2aTWnH0YNeTpl5B3XgWUPnopKTdFFvZ/ZAIi4FNuWFtg/zt91r2b79fTsXSG2w9+WLKFRZam3LDJRxFnhc1dbLHoiEQlSXTLtO2fsbZGjyE6UbZwl1nGXMkWKujY6HoM9ZY19MTG4s9Dwdjmnfckdw8w5+ZsJbOHIvnyaR/8GVnLoAzryKScwbCdPH6j8hI5OnKOjey82qMYJ1Tp8n3Cdp8ODivfr51xIzNDtmzOJiHwfni9o2p896lzjzMn9PWO3iHM6fN+dqcSU0p1z0vG61XHTCwhEPwFPABFioT2sEIuot02U56DYvloenwoAAGMS28mCxfFx2z/oiy8WKALmBuFIQi3igWKtfLI6svkuEgDKH7nCy8J3liMC1fjmF7UYGXRp6XkPogXgjV6QJ5LdNd81YExJOKAIQQApIxwuizhggR8corr9g+0fHSOQSvv/4HWw/ajgdI15olIVxIOJs6AmFtBAzpEYrkrTdKFBXf2l6dh5SfBuIu2YYsr1gaXKTQz7qQfv78t2vmEe1IKwNvJI/z0IX0zDdNw/mANyuNtDrrHM+6cWK20NTDUT2eRuAOtWl7sKzHc5WBUGENFEaiVYYAjwxkGXlPMRDfGPa0O089sxNEqt7xeCWo93BUL7o8MwzeHBZsN++R8MwS7OMukg8eLeo9/OLiPg6gVXjRNX3g4VIvTlposFEQBfo4EAUvz5USCZ8npnusmsGLLs8Vg4XsPJS2NSFSj2d2kAzBuc83ahVedHk8VwYvujwej8fj8XhaQL7o+gv5fwwXKqNhAe6ZAAAAAElFTkSuQmCC;" parent="1" vertex="1">
          <mxGeometry x="830" y="1030" width="605" height="347" as="geometry" />
        </mxCell>
        <mxCell id="V9hl9bFSDUjsQEaoqGGS-1" value="&lt;ul style=&quot;font-size: 17px;&quot;&gt;&lt;li style=&quot;font-size: 17px;&quot;&gt;Easy to add and manage multiple files&lt;/li&gt;&lt;li style=&quot;font-size: 17px;&quot;&gt;Relatively easy to bring in third party code&lt;/li&gt;&lt;li style=&quot;font-size: 17px;&quot;&gt;Easy to share project&amp;nbsp; settings across IDEs&lt;/li&gt;&lt;/ul&gt;" style="rounded=0;whiteSpace=wrap;html=1;align=left;fontSize=17;fillColor=#d5e8d4;strokeColor=#82b366;" parent="1" vertex="1">
          <mxGeometry x="70" y="730" width="390" height="260" as="geometry" />
        </mxCell>
        <mxCell id="V9hl9bFSDUjsQEaoqGGS-2" value="&lt;ul style=&quot;font-size: 17px;&quot;&gt;&lt;li style=&quot;font-size: 17px;&quot;&gt;Some project configuration specific settings are embedded in CMakeLists.txt files&lt;/li&gt;&lt;li style=&quot;font-size: 17px;&quot;&gt;Sometimes these are passed on the CMake command line, and it can be confusing&lt;/li&gt;&lt;li style=&quot;font-size: 17px;&quot;&gt;The project may not play well with other IDEs&lt;/li&gt;&lt;li style=&quot;font-size: 17px;&quot;&gt;The list of kits can be confusing...&lt;/li&gt;&lt;/ul&gt;" style="rounded=0;whiteSpace=wrap;html=1;align=left;fontSize=17;fillColor=#f8cecc;strokeColor=#b85450;" parent="1" vertex="1">
          <mxGeometry x="480" y="730" width="390" height="260" as="geometry" />
        </mxCell>
        <mxCell id="V9hl9bFSDUjsQEaoqGGS-3" value="Pros" style="rounded=0;whiteSpace=wrap;html=1;fontSize=17;fillColor=#99FF99;" parent="1" vertex="1">
          <mxGeometry x="70" y="670" width="390" height="60" as="geometry" />
        </mxCell>
        <mxCell id="V9hl9bFSDUjsQEaoqGGS-4" value="Cons" style="rounded=0;whiteSpace=wrap;html=1;fontSize=17;fillColor=#FF6666;" parent="1" vertex="1">
          <mxGeometry x="480" y="670" width="390" height="60" as="geometry" />
        </mxCell>
      </root>
    </mxGraphModel>
  </diagram>
</mxfile>
